<?xml version="1.0" encoding="UTF-8"?>
<svg width="20px" height="20px" viewBox="0 0 20 20" version="1.1" xmlns="http://www.w3.org/2000/svg" xmlns:xlink="http://www.w3.org/1999/xlink">
    <!-- Generator: Sketch 48.2 (47327) - http://www.bohemiancoding.com/sketch -->
    <title>pinterest-blank</title>
    <desc>Created with Sketch.</desc>
    <defs></defs>
    <g id="Page-1" stroke="none" stroke-width="1" fill="none" fill-rule="evenodd">
        <g id="pinterest-blank" fill="#FFFFFF" fill-rule="nonzero">
            <path d="M4.81997182,11.5635197 C5.05431949,11.1729399 5.17149183,10.8149139 5.17149183,10.4894307 C5.17149183,10.1639476 5.11290566,9.9100745 4.99573183,9.72780403 C4.87855774,9.54553356 4.74185701,9.3176986 4.58562514,9.0442929 C4.42939303,8.77088719 4.33825929,8.50399495 4.31222069,8.24360842 C4.15598857,7.28017836 4.26014173,6.34931062 4.62468292,5.4509772 C4.98922386,4.55264377 5.52951781,3.8300821 6.24558076,3.28327044 C6.96164347,2.73645878 7.74930077,2.31984664 8.60857641,2.0334215 C9.46785181,1.74699637 10.3531526,1.70793909 11.2645054,1.91624817 C12.175858,2.12455749 12.970025,2.56720774 13.6470299,3.24421266 C14.2198802,3.84310153 14.5713967,4.70887364 14.70159,5.84155499 C14.8317833,6.97423634 14.7601779,8.05482399 14.4867722,9.08335068 C14.2133662,10.1118774 13.7186393,10.9776495 13.0025766,11.680693 C12.2865136,12.3837365 11.472818,12.6441191 10.5614654,12.4618486 C9.88446046,12.3316553 9.46784831,12.0061772 9.31161644,11.4854041 C9.15538433,10.964631 9.18142268,10.3657512 9.389732,9.68874625 C9.59804107,9.01174133 9.81936632,8.32823694 10.0537143,7.63821284 C10.2880619,6.94818874 10.3791959,6.31025134 10.3271187,5.72438165 C10.2750412,5.13851196 9.97560144,4.74142871 9.42878978,4.53311938 C8.85593927,4.32481031 8.32866475,4.36386759 7.84694972,4.65029272 C7.36523469,4.93671785 7.01371817,5.34682054 6.79238968,5.88061277 C6.57106093,6.414405 6.46039855,7.01328512 6.46039855,7.67727062 C6.46039855,8.34125612 6.59058982,8.92060734 6.85097634,9.4153418 C6.74682168,9.93611486 6.59059207,10.5870712 6.38228299,11.3682308 C6.17397367,12.1493904 5.99821541,12.8133659 5.85500297,13.3601775 C5.71179028,13.9069892 5.56857984,14.597003 5.4253674,15.4302398 C5.28215471,16.2634766 5.21054961,16.992548 5.21054961,17.6174755 C5.21054961,18.2424032 5.24960689,19.0365699 5.32772295,20 C6.18699835,19.3750725 6.83144521,18.5158099 7.26108303,17.4221866 C7.6907206,16.3285632 8.07478493,14.9355164 8.41328752,13.2430042 C8.56951939,13.3211202 8.77782546,13.4513115 9.03821199,13.633582 C9.29859827,13.8158524 9.50690434,13.9525534 9.66313646,14.0436887 C9.81936832,14.1348239 10.0211647,14.2259579 10.268532,14.3170931 C10.5158991,14.4082283 10.7827914,14.4668145 11.0692165,14.4928531 C12.5013422,14.6230464 13.7576881,14.2454915 14.8382922,13.3601775 C15.9188961,12.4748635 16.6805151,11.32918 17.1231723,9.92309293 C17.5658293,8.51700588 17.6830014,7.05886336 17.4746923,5.54862165 C17.2143058,3.64780014 16.2443805,2.19616733 14.5648878,1.19367925 C12.8853948,0.191191163 10.9520539,-0.179853991 8.76480753,0.080532538 C7.02021789,0.262803008 5.47094139,0.998383853 4.11693179,2.28729707 C2.76292194,3.57621029 2.05988891,5.13199625 2.00781171,6.9547017 C1.90365705,9.58460534 2.84103425,11.1208627 4.81997182,11.5635197 Z" id="Shape"></path>
        </g>
    </g>
</svg>