<?xml version="1.0" encoding="UTF-8"?>
<svg width="20px" height="20px" viewBox="0 0 20 20" version="1.1" xmlns="http://www.w3.org/2000/svg" xmlns:xlink="http://www.w3.org/1999/xlink">
    <!-- Generator: Sketch 48.2 (47327) - http://www.bohemiancoding.com/sketch -->
    <title>twitter-blank</title>
    <desc>Created with Sketch.</desc>
    <defs></defs>
    <g id="Page-1" stroke="none" stroke-width="1" fill="none" fill-rule="evenodd">
        <g id="twitter-blank" fill="#FFFFFF" fill-rule="nonzero">
            <path d="M19.453125,2.3125 C18.6458292,2.78125225 17.7734422,3.10677 16.8359375,3.2890625 C16.0286417,2.42968325 15.0260478,2 13.828125,2 C12.7083278,2 11.7447957,2.40364175 10.9375,3.2109375 C10.1302043,4.01823325 9.7265625,4.98176525 9.7265625,6.1015625 C9.7265625,6.414064 9.7656245,6.726561 9.84375,7.0390625 C8.177075,6.960937 6.60808025,6.5442745 5.13671875,5.7890625 C3.66535725,5.0338505 2.42188,4.0182355 1.40625,2.7421875 C1.015623,3.3671905 0.8203125,4.057288 0.8203125,4.8125 C0.8203125,6.2708405 1.4322855,7.40364175 2.65625,8.2109375 C2.005205,8.2109375 1.393232,8.04166825 0.8203125,7.703125 L0.8203125,7.78125 C0.8203125,8.7447965 1.126299,9.604163 1.73828125,10.359375 C2.3502635,11.114587 3.138016,11.5963532 4.1015625,11.8046875 C3.73697725,11.882813 3.37239775,11.921875 3.0078125,11.921875 C2.7473945,11.921875 2.4869805,11.8958335 2.2265625,11.84375 C2.51302225,12.6770875 3.00129875,13.3606745 3.69140625,13.8945312 C4.38151375,14.428388 5.1692665,14.6953125 6.0546875,14.6953125 C4.570305,15.8671932 2.87761375,16.453125 0.9765625,16.453125 C0.664061,16.453125 0.33854325,16.4401042 0,16.4140625 C1.927093,17.638027 4.02342625,18.25 6.2890625,18.25 C8.11198825,18.25 9.77863825,17.898441 11.2890625,17.1953125 C12.7994867,16.492184 14.0299433,15.5742245 14.9804688,14.4414062 C15.9309942,13.308588 16.666664,12.0586005 17.1875,10.6914062 C17.708336,9.324212 17.96875,7.95052775 17.96875,6.5703125 C17.96875,6.38802 17.96875,6.21875075 17.96875,6.0625 C18.7760458,5.46353875 19.4531222,4.7474 20,3.9140625 C19.244788,4.25260575 18.4635458,4.47395775 17.65625,4.578125 C18.541671,4.03124725 19.1406235,3.2760465 19.453125,2.3125 Z" id="Shape"></path>
        </g>
    </g>
</svg>