<svg width="92" height="83" viewBox="0 0 92 83" fill="none" xmlns="http://www.w3.org/2000/svg">
<g clip-path="url(#clip0)">
<g style="mix-blend-mode:multiply">
<path d="M57.9524 81.049C83.1412 72.528 85.9295 16.7232 72.1847 10.0639C58.44 3.40456 -1.06223 -4.9038 -0.170449 30.4051C0.721329 65.714 32.7637 89.5701 57.9524 81.049Z" fill="url(#paint0_linear)" fill-opacity="0.09"/>
</g>
<path d="M64.2819 55.3361H46.218V62.112H64.2819V55.3361Z" fill="#2C3E50"/>
<path d="M87.991 47.431V51.3271C88.1522 53.9899 86.1357 56.2842 83.475 56.4654H27.025C24.3641 56.2841 22.3478 53.9898 22.509 51.3271V47.431H87.991Z" fill="#556080"/>
<path d="M87.991 5.1383V47.431H22.509V5.1383C22.3478 2.47544 24.3641 0.181148 27.025 0H83.4749C86.1357 0.181148 88.1521 2.47544 87.991 5.1383Z" fill="#3D324C"/>
<path d="M43.96 10.4009V24.427C43.9484 24.6661 43.7476 24.8519 43.5084 24.8448H30.8636C30.6268 24.857 30.4248 24.6752 30.412 24.4383V10.4009L36.836 4.64141C37.0386 4.47191 37.3334 4.47191 37.536 4.64141L43.96 10.4009Z" fill="#F3D55B"/>
<path d="M37.1859 29.362V36.138L31.5409 39.5259L31.3829 39.6275C30.7437 38.5762 30.4075 37.3684 30.4119 36.138C30.412 32.3956 33.4448 29.362 37.1859 29.362Z" fill="#F0C419"/>
<path d="M43.96 36.1378C43.9654 37.9356 43.2497 39.6606 41.9729 40.9261L37.1859 36.1378V29.3619C40.9271 29.362 43.96 32.3956 43.96 36.1378Z" fill="#FF5364"/>
<path d="M41.9729 40.9261C40.5007 42.4025 38.4301 43.1174 36.3608 42.8637C34.2916 42.6099 32.4549 41.4159 31.3829 39.6275L31.5409 39.5259L37.1859 36.1379L41.9729 40.9261Z" fill="#24AE5F"/>
<path d="M59.766 5.64655H62.0239C62.6474 5.64655 63.153 6.15212 63.153 6.77591V20.3276H58.637V6.77578C58.6369 6.15212 59.1425 5.64655 59.766 5.64655Z" fill="#F0C419"/>
<path d="M68.4931 11.293H71.3607C71.8159 11.293 72.1849 11.6621 72.1849 12.1174V20.3275H67.6689V12.1175C67.6689 11.6622 68.0379 11.293 68.4931 11.293Z" fill="#FF5364"/>
<path d="M77.3523 14.681H80.5643C80.924 14.681 81.2158 14.9726 81.2158 15.3326V20.3275H76.7008V15.3326C76.701 14.9728 76.9926 14.681 77.3523 14.681Z" fill="#24AE5F"/>
<path d="M54.1209 39.5258C53.6644 39.5257 53.2528 39.2505 53.0781 38.8286C52.9034 38.4067 53 37.9211 53.3228 37.598L57.3714 33.5483C58.712 32.2687 60.8212 32.2687 62.1617 33.5483L63.4837 34.8718C63.9246 35.3127 64.6392 35.3127 65.0801 34.8718L69.7903 30.1603C71.1305 28.8809 73.2394 28.8809 74.5796 30.1603L75.9028 31.4839C76.3436 31.9247 77.0583 31.9247 77.4991 31.4839L81.5478 27.4353C81.9908 27.0074 82.695 27.0134 83.1305 27.4491C83.5659 27.8847 83.5721 28.5891 83.1443 29.0322L79.0957 33.082C77.7714 34.4008 75.6306 34.4008 74.3064 33.082L72.9832 31.7573C72.5371 31.3291 71.8328 31.3291 71.3868 31.7573L66.6766 36.4688C65.3539 37.7913 63.21 37.7913 61.8873 36.4688L60.5641 35.1452C60.118 34.7171 59.4137 34.7171 58.9678 35.1452L54.9191 39.195C54.7075 39.4067 54.4203 39.5258 54.1209 39.5258Z" fill="#FF5364"/>
<path d="M40.573 60.9827H69.9269C71.7975 60.9827 73.3139 62.4996 73.3139 64.3707V65.5H37.1859V64.3707C37.1859 62.4996 38.7024 60.9827 40.573 60.9827Z" fill="#556080"/>
<path d="M46.218 13.5517C45.94 13.5517 45.672 13.4491 45.4649 13.2638L37.1859 5.851L28.9069 13.2638C28.4417 13.6727 27.7338 13.6304 27.3205 13.1687C26.9073 12.707 26.9431 11.9987 27.4009 11.5811L36.0851 3.80463C36.7066 3.25671 37.6364 3.24942 38.2664 3.78775L46.971 11.5799C47.3205 11.8921 47.441 12.3877 47.2739 12.8255C47.1066 13.2631 46.6864 13.5522 46.218 13.5517Z" fill="#FF5364"/>
<path d="M30.412 11.5302C29.7885 11.5302 29.283 11.0246 29.283 10.4008V7.34048C29.283 6.71683 29.7884 6.21112 30.412 6.21112C31.0356 6.21112 31.5411 6.7167 31.5411 7.34048V10.4009C31.5409 11.0246 31.0355 11.5302 30.412 11.5302Z" fill="#FF5364"/>
<path d="M82.346 21.4569H56.3789C54.5083 21.4569 52.9919 19.94 52.9919 18.0689V4.51721C52.9919 3.89355 53.4973 3.38785 54.1209 3.38785C54.7446 3.38785 55.25 3.89343 55.25 4.51721V18.0689C55.25 18.6926 55.7554 19.1983 56.3791 19.1983H82.346C82.9694 19.1983 83.475 19.7039 83.475 20.3277C83.475 20.9514 82.9694 21.4569 82.346 21.4569Z" fill="#B49ACA"/>
<path d="M82.346 44.043H56.3789C54.5083 44.043 52.9919 42.5261 52.9919 40.655V27.1035C52.9919 26.4798 53.4973 25.9741 54.1209 25.9741C54.7446 25.9741 55.25 26.4797 55.25 27.1035V40.6552C55.25 41.2788 55.7554 41.7845 56.3791 41.7845H82.346C82.9694 41.7845 83.475 42.2901 83.475 42.9139C83.475 43.5377 82.9694 44.043 82.346 44.043Z" fill="#B49ACA"/>
</g>
<defs>
<linearGradient id="paint0_linear" x1="54.2736" y1="2.74403" x2="33.5849" y2="79.9554" gradientUnits="userSpaceOnUse">
<stop stop-color="#F2C94C"/>
<stop offset="1" stop-color="#F2994A"/>
</linearGradient>
<clipPath id="clip0">
<rect width="367" height="330" fill="white" transform="scale(0.25)"/>
</clipPath>
</defs>
</svg>
