<svg width="92" height="83" viewBox="0 0 92 83" fill="none" xmlns="http://www.w3.org/2000/svg">
<g clip-path="url(#clip0)">
<g style="mix-blend-mode:multiply">
<path d="M84.5092 61.2235C96.2951 37.3872 58.8068 -4.04448 44.3789 0.965695C29.951 5.97587 -17.9983 42.1754 7.59946 66.5119C33.1972 90.8485 72.7234 85.0599 84.5092 61.2235Z" fill="url(#paint0_linear)" fill-opacity="0.09"/>
</g>
<path d="M43.3391 25.2563C45.3466 22.9589 45.1114 19.469 42.8139 17.4616C41.8004 16.5761 40.4985 16.0909 39.1527 16.0974C39.0528 16.0974 38.9595 16.1219 38.8607 16.1263C39.0464 15.5804 39.1449 15.0088 39.1527 14.4322C39.1527 11.3666 36.6674 8.88135 33.6018 8.88135C30.5363 8.88135 28.051 11.3666 28.051 14.4322C28.0588 15.0088 28.1573 15.5804 28.343 16.1263C28.2442 16.1263 28.1509 16.0974 28.051 16.0974C25.0001 16.0829 22.515 18.5443 22.5005 21.5951C22.4941 22.941 22.9791 24.2429 23.8646 25.2563C21.9605 27.4265 22.0604 30.6999 24.0933 32.75C21.9473 34.9392 21.9824 38.4538 24.1718 40.5997C25.2079 41.6152 26.6003 42.1848 28.051 42.1864H39.1527C42.2183 42.183 44.7007 39.6949 44.6971 36.6292C44.6955 35.1785 44.1259 33.7861 43.1104 32.75C45.1433 30.6999 45.2432 27.4265 43.3391 25.2563Z" fill="#88B337"/>
<path d="M33.6018 52.178C32.9887 52.178 32.4917 51.6809 32.4917 51.0678V17.7627C32.4917 17.1496 32.9887 16.6526 33.6018 16.6526C34.2149 16.6526 34.712 17.1496 34.712 17.7627V51.0678C34.712 51.6809 34.2149 52.178 33.6018 52.178Z" fill="#618C20"/>
<path d="M33.6018 27.7543C33.3074 27.7543 33.0251 27.6371 32.817 27.429L28.3763 22.9883C27.9504 22.5473 27.9626 21.8444 28.4036 21.4185C28.8338 21.003 29.5159 21.003 29.9461 21.4185L34.3867 25.8592C34.8202 26.2929 34.8201 26.9957 34.3864 27.4292C34.1784 27.6373 33.8962 27.7541 33.6018 27.7543Z" fill="#618C20"/>
<path d="M33.6018 37.7458C33.3074 37.7458 33.0251 37.6286 32.817 37.4205L28.3763 32.9798C27.9504 32.5388 27.9626 31.8359 28.4036 31.41C28.8338 30.9945 29.5159 30.9945 29.9461 31.41L34.3867 35.8507C34.8202 36.2844 34.8201 36.9872 34.3864 37.4208C34.1784 37.6288 33.8962 37.7456 33.6018 37.7458Z" fill="#618C20"/>
<path d="M58.0255 65.5H22.5002V43.2966L40.2628 25.5339L58.0255 43.2966V65.5Z" fill="#DEDEDE"/>
<path d="M58.0255 43.2966H86.8898V65.5H58.0255V43.2966Z" fill="#CFCFCF"/>
<path d="M40.2628 25.5339L58.0255 43.2966H86.8898L69.1272 25.5339H40.2628V25.5339Z" fill="#4398D1"/>
<path d="M86.8898 43.2966L70.7924 27.1992L56.3603 41.6314L58.0255 43.2966H86.8898Z" fill="#3E8CC7"/>
<path d="M34.712 49.9576H45.8137V65.5H34.712V49.9576Z" fill="#3570AB"/>
<path d="M74.678 0H76.8983V2.22034H74.678V0Z" fill="#FDB62F"/>
<path d="M74.678 22.2034H76.8983V24.4237H74.678V22.2034Z" fill="#FDB62F"/>
<path d="M63.5763 11.1017H65.7967V13.322H63.5763V11.1017Z" fill="#FDB62F"/>
<path d="M85.7797 11.1017H88V13.322H85.7797V11.1017Z" fill="#FDB62F"/>
<path d="M66.3683 4.36156L67.9383 2.7915L69.5084 4.36156L67.9383 5.93162L66.3683 4.36156Z" fill="#FDB62F"/>
<path d="M82.0681 20.0616L83.6382 18.4915L85.2082 20.0616L83.6382 21.6316L82.0681 20.0616Z" fill="#FDB62F"/>
<path d="M66.3683 20.0616L67.9383 18.4915L69.5084 20.0616L67.9383 21.6316L66.3683 20.0616Z" fill="#FDB62F"/>
<path d="M82.0682 4.36156L83.6383 2.7915L85.2083 4.36156L83.6383 5.93162L82.0682 4.36156Z" fill="#FDB62F"/>
<path d="M75.7882 18.8729C79.4669 18.8729 82.4492 15.8906 82.4492 12.2119C82.4492 8.53308 79.4669 5.55084 75.7882 5.55084C72.1094 5.55084 69.1272 8.53308 69.1272 12.2119C69.1272 15.8906 72.1094 18.8729 75.7882 18.8729Z" fill="#FDB62F"/>
<path d="M70.3484 16.0531C72.4398 19.0795 76.5887 19.8374 79.6151 17.7459C82.6415 15.6545 83.3993 11.5055 81.3079 8.47921C81.1794 8.29326 81.0416 8.11411 80.8949 7.94217C78.2229 11.5942 74.5641 14.4081 70.3484 16.0531Z" fill="#F7A72E"/>
<path d="M73.2559 37.7458H81.339L79.1187 35.5254H71.1255L67.9337 32.1949H75.7882L73.5678 29.9746H65.8078L61.5525 25.5339H58.4762L62.7326 29.9746H56.9442L52.6812 25.5339H49.6038L53.8668 29.9746H44.7035L46.9238 32.1949H55.9983L59.1956 35.5254H50.2543L52.4747 37.7458H61.3271L66.6559 43.2966H69.7333L64.4045 37.7458H70.1774L75.4973 43.2966H78.5725L73.2559 37.7458ZM62.273 35.5254L59.0757 32.1949H64.8597L68.0514 35.5254H62.273Z" fill="#3570AB"/>
</g>
<defs>
<linearGradient id="paint0_linear" x1="26.5379" y1="8.45487" x2="66.5054" y2="77.6807" gradientUnits="userSpaceOnUse">
<stop stop-color="#F2C94C"/>
<stop offset="1" stop-color="#F2994A"/>
</linearGradient>
<clipPath id="clip0">
<rect width="367" height="330" fill="white" transform="scale(0.25)"/>
</clipPath>
</defs>
</svg>
