<svg width="92" height="83" viewBox="0 0 92 83" fill="none" xmlns="http://www.w3.org/2000/svg">
<g style="mix-blend-mode:multiply">
<path d="M70.625 76.25C92.75 61.5 81 6.87503 66 4.00003C51.0001 1.12502 -8.62502 8.50006 1.37499 42.375C11.375 76.25 48.5 91 70.625 76.25Z" fill="url(#paint0_linear)" fill-opacity="0.09"/>
</g>
<path d="M55.375 0C54.7057 0 54.1625 0.543407 54.1625 1.21296V8.49074C54.1625 9.1603 54.7057 9.7037 55.375 9.7037C56.0443 9.7037 56.5875 9.1603 56.5875 8.49074V1.21296C56.5875 0.543407 56.0443 0 55.375 0Z" fill="#F0C419"/>
<path d="M90.5375 35.1759H83.2625C82.5932 35.1759 82.05 35.7193 82.05 36.3889C82.05 37.0585 82.5932 37.6019 83.2625 37.6019H90.5375C91.2068 37.6019 91.75 37.0585 91.75 36.3889C91.75 35.7193 91.2068 35.1759 90.5375 35.1759Z" fill="#F0C419"/>
<path d="M27.4875 35.1759H20.2125C19.5432 35.1759 19 35.7193 19 36.3889C19 37.0585 19.5432 37.6019 20.2125 37.6019H27.4875C28.1568 37.6019 28.7 37.0585 28.7 36.3889C28.7 35.7193 28.1568 35.1759 27.4875 35.1759Z" fill="#F0C419"/>
<path d="M82.9072 8.84615C82.4331 8.37188 81.6668 8.37188 81.1927 8.84615L74.2378 15.8037C73.7638 16.278 73.7638 17.0446 74.2378 17.5188C74.4743 17.7554 74.7847 17.8742 75.0951 17.8742C75.4055 17.8742 75.7159 17.7554 75.9523 17.5188L82.9072 10.5613C83.3813 10.087 83.3813 9.32042 82.9072 8.84615Z" fill="#F0C419"/>
<path d="M29.5572 8.84615C29.0832 8.37188 28.3169 8.37188 27.8428 8.84615C27.3687 9.32042 27.3687 10.087 27.8428 10.5613L34.7977 17.5188C35.0341 17.7554 35.3445 17.8742 35.6549 17.8742C35.9653 17.8742 36.2757 17.7554 36.5121 17.5188C36.9862 17.0446 36.9862 16.278 36.5121 15.8037L29.5572 8.84615Z" fill="#F0C419"/>
<path d="M85.5105 23.5921C85.2486 22.9759 84.5356 22.6872 83.9209 22.9492L80.572 24.3708C79.956 24.6328 79.6675 25.3448 79.9294 25.961C80.1258 26.4231 80.5744 26.7009 81.0461 26.7009C81.2037 26.7009 81.365 26.6694 81.5189 26.6039L84.8679 25.1823C85.4838 24.9203 85.7712 24.2083 85.5105 23.5921Z" fill="#F0C419"/>
<path d="M29.9719 24.8135L26.5987 23.4502C25.9779 23.1991 25.271 23.4987 25.0201 24.1209C24.7691 24.742 25.0698 25.4491 25.6906 25.7002L29.0637 27.0636C29.2129 27.123 29.3669 27.1521 29.5172 27.1521C29.9974 27.1521 30.4521 26.8659 30.6424 26.3928C30.8934 25.7718 30.5939 25.0646 29.9719 24.8135Z" fill="#F0C419"/>
<path d="M44.1727 6.88473C43.9108 6.26733 43.1978 5.97865 42.5831 6.24186C41.9672 6.50386 41.6786 7.21587 41.9405 7.83205L43.3615 11.1823C43.558 11.6444 44.0066 11.9222 44.4782 11.9222C44.6359 11.9222 44.7971 11.8906 44.9511 11.8251C45.5671 11.5631 45.8556 10.8511 45.5937 10.2349L44.1727 6.88473Z" fill="#F0C419"/>
<path d="M67.6382 6.02355C67.0186 5.77247 66.3105 6.07328 66.0595 6.69432L64.6967 10.0676C64.4457 10.6886 64.7464 11.3958 65.3672 11.6468C65.5163 11.7063 65.6703 11.7354 65.8207 11.7354C66.3008 11.7354 66.7555 11.4491 66.9459 10.9761L68.3087 7.60162C68.5597 6.98179 68.259 6.27463 67.6382 6.02355Z" fill="#F0C419"/>
<path d="M77.5941 46.0926C78.8927 43.1196 79.625 39.841 79.625 36.3889C79.625 22.9905 68.7683 12.1296 55.375 12.1296C41.9817 12.1296 31.125 22.9905 31.125 36.3889C31.125 39.841 31.8574 43.1196 33.1559 46.0926H77.5941Z" fill="#F0C419"/>
<path d="M70.741 46.0926C72.5185 43.2822 73.5625 39.9611 73.5625 36.3889C73.5625 26.3407 65.4193 18.1945 55.375 18.1945C45.3306 18.1945 37.1875 26.3407 37.1875 36.3889C37.1875 39.9611 38.2315 43.2822 40.009 46.0926H70.741Z" fill="#EDE21B"/>
<path d="M90.5375 44.8796H20.2125C19.5432 44.8796 19 45.423 19 46.0926C19 46.7621 19.5432 47.3055 20.2125 47.3055H90.5375C91.2068 47.3055 91.75 46.7621 91.75 46.0926C91.75 45.423 91.2068 44.8796 90.5375 44.8796Z" fill="#F29C1F"/>
<path d="M84.475 50.9445H26.275C25.6057 50.9445 25.0625 51.4879 25.0625 52.1574C25.0625 52.827 25.6057 53.3704 26.275 53.3704H84.475C85.1443 53.3704 85.6875 52.827 85.6875 52.1574C85.6875 51.4879 85.1443 50.9445 84.475 50.9445Z" fill="#F29C1F"/>
<path d="M78.4125 57.0093H32.3375C31.6682 57.0093 31.125 57.5527 31.125 58.2222C31.125 58.8918 31.6682 59.4352 32.3375 59.4352H78.4125C79.0818 59.4352 79.625 58.8918 79.625 58.2222C79.625 57.5527 79.0818 57.0093 78.4125 57.0093Z" fill="#F29C1F"/>
<path d="M73.5625 63.0741H37.1875C36.5182 63.0741 35.975 63.6175 35.975 64.287C35.975 64.9566 36.5182 65.5 37.1875 65.5H73.5625C74.2318 65.5 74.775 64.9566 74.775 64.287C74.775 63.6175 74.2318 63.0741 73.5625 63.0741Z" fill="#F29C1F"/>
<defs>
<linearGradient id="paint0_linear" x1="46.8047" y1="1.56534" x2="46.8047" y2="81.5004" gradientUnits="userSpaceOnUse">
<stop stop-color="#F2C94C"/>
<stop offset="1" stop-color="#F2994A"/>
</linearGradient>
</defs>
</svg>
