<?xml version="1.0" encoding="utf-8"?>
<!-- Generator: Adobe Illustrator 19.1.0, SVG Export Plug-In . SVG Version: 6.00 Build 0)  -->
<svg version="1.1" id="Laag_1" xmlns="http://www.w3.org/2000/svg" xmlns:xlink="http://www.w3.org/1999/xlink" x="0px" y="0px"
	 width="523px" height="186px" viewBox="0 0 523 186" style="enable-background:new 0 0 523 186;" xml:space="preserve">
<style type="text/css">
	.st0{fill:#DD0B2B;}
	.st1{fill:#0056A4;}
</style>
<path class="st0" d="M49.8,22c0-9.8,7.9-17.7,17.7-17.7c9.8,0,17.7,7.9,17.7,17.7c0,9.8-7.9,17.7-17.7,17.7
	C57.7,39.7,49.8,31.8,49.8,22"/>
<path class="st0" d="M95.3,87c0-9.8,7.9-17.7,17.7-17.7c9.8,0,17.7,7.9,17.7,17.7c0,9.8-7.9,17.7-17.7,17.7
	C103.2,104.8,95.3,96.8,95.3,87"/>
<path class="st0" d="M4.1,87c0-9.8,7.9-17.7,17.7-17.7c9.8,0,17.7,7.9,17.7,17.7c0,9.8-7.9,17.7-17.7,17.7C12,104.8,4.1,96.8,4.1,87
	"/>
<path class="st1" d="M126.3,29.5c2,1.2,3.7,2.8,5.3,4.6C119.1,44.2,99.2,54,91.1,68c-8.2,14.2-6.8,35.4-9.6,57.1
	c-6.8,2.6-17.6,6-26.3,8.1c-2.2-18.4-1.4-45.7-9-58.8C39.5,62.9,20.3,53.2,1.5,39.9c7.7-4,16.2-8,23.1-10.4
	c12.8,5.3,33.1,21.1,48.9,21.1C87.8,50.6,112.6,35.1,126.3,29.5"/>
<path class="st1" d="M259.8,133.2v-31.3c0,0,0.6,0.4,1.1,0.7c2,1.2,6.7,2.2,10,2.2c22.6,0,36.2-14.3,36.2-36.9
	c0-18.3-9.4-31.5-28.4-31.5c-7.8,0-13.6,2.7-17.8,5.8l-1.1,0.8v-7.7c-5.7,0.3-14,1.7-20.1,3.2v94.7H259.8z M268.1,89
	c-2.8,0-4.7,0-8.4-1.1V56.8c3.6-3.1,7.8-4.7,12.1-4.7c10.5,0,15.2,6.9,15.2,17.4C287.1,81.6,280.5,89,268.1,89"/>
<path class="st1" d="M345.5,133.2c-8.5,0-19-1.1-25.9-4.7v-15.9h1.1c5.8,2.7,13.7,4.8,22.6,4.8c9.7,0,19.5-5.8,19.5-14.3v-5
	c0,0-0.9,0.6-1.1,0.8c-4.2,3.1-10,5.8-17.9,5.8c-18.5,0-28.4-12.7-28.4-31.1c0-23.6,15.8-36.2,39.5-36.2h27.9v61
	C382.8,121.6,368.7,133.2,345.5,133.2 M350.8,89c4.2,0,8.3-1.6,12.1-4.8v-31h-7.4c-12.1,0-19.9,6.3-19.9,18.5
	C335.5,82.7,340.2,89,350.8,89"/>
<path class="st1" d="M183.4,104.8c8.3,0,15.2-2.7,19.4-6.9c0.1-0.1,0.3-0.3,0.3-0.3s0.1,0.2,0.1,0.3c2.7,4.8,7.9,6.9,14.4,6.9
	c3.1,0,9.4-0.5,12.7-1.6V89.5h-4.3c-4.2,0-5.3-1.6-5.3-5.8v-27c0-14.3-9.6-21.5-29-21.5c-7.3,0-16.3,1.1-24.6,4.2v15.9h1.1
	c6.3-3.2,13.1-4.3,18.9-4.3c8.5,0,13.7,2.2,13.7,9.6v2h-10.5c-15.8,0-30,5.8-30,21.6C160.2,97.3,170.2,104.8,183.4,104.8
	 M179.7,82.1c0-5.8,5.3-7.9,11-7.9h10V86c-2.8,1.9-7,3.5-11,3.5C183.9,89.5,179.7,87.9,179.7,82.1"/>
<path class="st1" d="M512.5,179.3c3.7,0,6.5-1.8,6.5-5c0-2.3-1.5-3.7-3.6-4.2l-2.8-0.8c-1.6-0.4-2.3-0.9-2.3-2.3
	c0-1.6,1.5-2.2,3.3-2.2c1.3,0,3.3,0.3,4.3,0.8h0.3v-2.3c-1-0.5-3.1-0.8-4.4-0.8c-3,0-6.1,1.4-6.1,4.6c0,2.3,1.3,3.7,3.9,4.4l2.5,0.6
	c1.5,0.4,2.2,1,2.2,2.3c0,1.8-1.5,2.5-3.6,2.5c-1.7,0-3.5-0.4-4.8-1h-0.3v2.4C508.7,179,511,179.3,512.5,179.3 M498.3,165.2
	c1,0,1.4,0,2.7,0.3V176c-1,0.5-2,1-3.4,1c-3,0-4.8-2-4.8-5.5C492.8,167,495.5,165.2,498.3,165.2 M502.1,179.3l1.5-0.5v-24h-0.7
	l-1.9,0.5v8.1h-0.3c-0.5-0.3-1.7-0.5-2.5-0.5c-4.4,0-8.2,3-8.2,8.6c0,5,2.9,7.8,6.7,7.8c1.8,0,3-0.5,4-1.3h0.3v1.3H502.1z
	 M486.1,179.1v-9.6c0-2-0.5-3.5-1.3-4.6c-1.1-1.5-3-2-4.5-2c-1.5,0-3.3,0.5-4.6,1.5h-0.3v-1.8h-0.7l-1.9,0.5v15.9h2.7v-12.4
	c1.3-1,2.4-1.5,3.9-1.5c1.7,0,2.7,0.5,3.3,1.5c0.5,0.8,0.7,1.8,0.7,3.6v8.8H486.1z M461.4,177c-3,0-4.7-2.3-4.7-6
	c0-3.8,1.7-6.1,4.7-6.1c3.1,0,4.7,2.3,4.7,6.1C466.1,174.8,464.4,177,461.4,177 M461.4,179.3c4.1,0,7.4-3,7.4-8.3
	c0-5.3-2.9-8.4-7.4-8.4c-4.2,0-7.5,3-7.5,8.4C454,176.3,456.9,179.3,461.4,179.3 M448.7,179.1v-13.7h4v-2.3h-4v-1.8
	c0-3,1.5-4.3,4-4.3h1.7v-2.3h-1.7c-3.9,0-6.7,2.3-6.7,6.3v2h-2.5v2.3h2.5v13.7H448.7z M440.2,179.1v-9.6c0-2-0.5-3.5-1.3-4.6
	c-1.1-1.5-3-2-4.5-2c-1.5,0-3.3,0.5-4.6,1.5h-0.3v-1.8h-0.7l-1.9,0.5v15.9h2.7v-12.4c1.3-1,2.4-1.5,3.9-1.5c1.6,0,2.6,0.5,3.3,1.5
	c0.5,0.8,0.7,1.8,0.7,3.6v8.8H440.2z M412.1,169l0-0.2c0.5-2.5,2.4-3.8,4.7-3.8c2,0,3.3,1,3.3,3.3v0.4L412.1,169z M416.8,179.3
	c1.3,0,3.3,0,5.1-1V176h-0.3c-1.5,0.8-2.8,1-4.3,1c-3.4,0-5.4-2-5.4-6v0l10.6-0.4c0.1-0.7,0.3-1.9,0.3-2.7c0-3-2.1-5.3-6-5.3
	c-4.2,0-7.7,3-7.7,8.4C409.1,176.3,412.1,179.3,416.8,179.3 M399.1,177c-3,0-4.7-2.3-4.7-6c0-3.8,1.7-6.1,4.7-6.1
	c3.1,0,4.7,2.3,4.7,6.1C403.8,174.8,402.1,177,399.1,177 M399.1,179.3c4.1,0,7.4-3,7.4-8.3c0-5.3-2.9-8.4-7.4-8.4
	c-4.2,0-7.5,3-7.5,8.4C391.7,176.3,394.6,179.3,399.1,179.3 M387.6,179.1v-16.4h-0.7l-1.9,0.5v15.9H387.6z M386.3,158.3
	c1,0,1.7-0.7,1.7-1.7c0-1-0.6-1.8-1.7-1.8c-1,0-1.7,0.7-1.7,1.8C384.7,157.6,385.3,158.3,386.3,158.3 M374.3,179.3
	c3.7,0,6.5-1.8,6.5-5c0-2.3-1.5-3.7-3.6-4.2l-2.8-0.8c-1.6-0.4-2.3-0.9-2.3-2.3c0-1.6,1.5-2.2,3.3-2.2c1.3,0,3.3,0.3,4.3,0.8h0.3
	v-2.3c-1-0.5-3.1-0.8-4.4-0.8c-3,0-6,1.4-6,4.6c0,2.3,1.3,3.7,3.9,4.4l2.5,0.6c1.5,0.4,2.2,1,2.2,2.3c0,1.8-1.5,2.5-3.6,2.5
	c-1.6,0-3.5-0.4-4.8-1h-0.3v2.4C370.6,179,372.9,179.3,374.3,179.3 M365.5,179.1v-9.6c0-2-0.5-3.5-1.3-4.6c-1.1-1.5-3-2-4.5-2
	c-1.5,0-3.3,0.5-4.6,1.5h-0.3v-1.8h-0.7l-1.9,0.5v15.9h2.7v-12.4c1.3-1,2.4-1.5,3.9-1.5c1.7,0,2.7,0.5,3.3,1.5
	c0.5,0.8,0.7,1.8,0.7,3.6v8.8H365.5z M337.4,169l0-0.2c0.5-2.5,2.4-3.8,4.7-3.8c2,0,3.3,1,3.3,3.3v0.4L337.4,169z M342.1,179.3
	c1.3,0,3.3,0,5.1-1V176h-0.3c-1.5,0.8-2.8,1-4.3,1c-3.4,0-5.4-2-5.4-6v0l10.6-0.4c0.1-0.7,0.3-1.9,0.3-2.7c0-3-2.1-5.3-6-5.3
	c-4.2,0-7.7,3-7.7,8.4C334.4,176.3,337.5,179.3,342.1,179.3 M323.7,177.2c-1,0-1.9-0.1-2.8-0.4v-10.6c1-0.5,2.1-1,3.5-1
	c3,0,4.7,2,4.7,5.6C329.1,175.7,326.6,177.2,323.7,177.2 M320.9,186.2v-7.3h0.3c0.5,0.3,2,0.5,2.8,0.5c4.4,0,8-3,8-8.6
	c0-5-2.8-7.8-6.7-7.8c-1.8,0-3,0.5-4,1.3h-0.3v-1.5h-0.7l-1.9,0.5v23H320.9z M307.5,179.3c3.7,0,6.5-1.8,6.5-5
	c0-2.3-1.5-3.7-3.6-4.2l-2.8-0.8c-1.6-0.4-2.3-0.9-2.3-2.3c0-1.6,1.5-2.2,3.3-2.2c1.3,0,3.3,0.3,4.3,0.8h0.3v-2.3
	c-1-0.5-3.1-0.8-4.4-0.8c-3,0-6,1.4-6,4.6c0,2.3,1.3,3.7,3.9,4.4l2.5,0.6c1.5,0.4,2.2,1,2.2,2.3c0,1.8-1.5,2.5-3.6,2.5
	c-1.7,0-3.5-0.4-4.8-1h-0.3v2.4C303.7,179,306,179.3,307.5,179.3 M298.7,179.1v-24.3h-0.7l-1.9,0.5v23.7H298.7z M281.2,169l0-0.2
	c0.5-2.5,2.4-3.8,4.7-3.8c2,0,3.3,1,3.3,3.3v0.4L281.2,169z M285.9,179.3c1.3,0,3.3,0,5.1-1V176h-0.3c-1.5,0.8-2.8,1-4.3,1
	c-3.4,0-5.4-2-5.4-6v0l10.6-0.4c0.1-0.7,0.3-1.9,0.3-2.7c0-3-2.1-5.3-6-5.3c-4.2,0-7.7,3-7.7,8.4
	C278.2,176.3,281.2,179.3,285.9,179.3 M264.8,169l0-0.2c0.5-2.5,2.4-3.8,4.7-3.8c2,0,3.3,1,3.3,3.3v0.4L264.8,169z M269.4,179.3
	c1.3,0,3.3,0,5.1-1V176h-0.3c-1.5,0.8-2.8,1-4.3,1c-3.4,0-5.4-2-5.4-6v0l10.6-0.4c0.1-0.7,0.3-1.9,0.3-2.7c0-3-2.1-5.3-6-5.3
	c-4.2,0-7.7,3-7.7,8.4C261.7,176.3,264.8,179.3,269.4,179.3 M257.8,179.1v-9.6c0-2-0.5-3.5-1.3-4.6c-1.1-1.5-3-2-4.5-2
	c-1.5,0-3.3,0.5-4.6,1.5h-0.3v-1.8h-0.7l-1.9,0.5v15.9h2.7v-12.4c1.3-1,2.4-1.5,3.9-1.5c1.6,0,2.7,0.5,3.3,1.5
	c0.5,0.8,0.7,1.8,0.7,3.6v8.8H257.8z M233.2,177c-3,0-4.7-2.3-4.7-6c0-3.8,1.6-6.1,4.7-6.1c3.1,0,4.7,2.3,4.7,6.1
	C237.9,174.8,236.2,177,233.2,177 M233.2,179.3c4.1,0,7.4-3,7.4-8.3c0-5.3-2.9-8.4-7.4-8.4c-4.2,0-7.5,3-7.5,8.4
	C225.7,176.3,228.7,179.3,233.2,179.3 M216.4,179.3c3.7,0,6.5-1.8,6.5-5c0-2.3-1.5-3.7-3.6-4.2l-2.8-0.8c-1.6-0.4-2.3-0.9-2.3-2.3
	c0-1.6,1.5-2.2,3.3-2.2c1.3,0,3.3,0.3,4.3,0.8h0.3v-2.3c-1-0.5-3.1-0.8-4.4-0.8c-3,0-6,1.4-6,4.6c0,2.3,1.3,3.7,3.9,4.4l2.5,0.6
	c1.5,0.4,2.2,1,2.2,2.3c0,1.8-1.5,2.5-3.6,2.5c-1.6,0-3.5-0.4-4.8-1h-0.3v2.4C212.6,179,214.9,179.3,216.4,179.3 M204.5,179.1v-11.9
	c1-1.3,2.3-1.5,3.5-1.5h2v-2.5c-0.5-0.3-1-0.3-1.5-0.3c-1.3,0-2.8,0.5-3.8,2h-0.3v-2.3h-0.7l-1.9,0.5v15.9H204.5z M187,169l0-0.2
	c0.5-2.5,2.4-3.8,4.7-3.8c2,0,3.3,1,3.3,3.3v0.4L187,169z M191.7,179.3c1.3,0,3.3,0,5.1-1V176h-0.3c-1.5,0.8-2.8,1-4.3,1
	c-3.4,0-5.4-2-5.4-6v0l10.6-0.4c0.1-0.7,0.3-1.9,0.3-2.7c0-3-2.1-5.3-6-5.3c-4.2,0-7.7,3-7.7,8.4C184,176.3,187.1,179.3,191.7,179.3
	 M170,168.7v-10.6h3.7c3.5,0,5.4,1.9,5.4,4.8c0,3.7-1.6,5.8-5.4,5.8H170z M170,179.1V171h3.7c5.6,0,8.3-3,8.3-8.1
	c0-4.6-3-7.1-8.3-7.1h-6.4v23.3H170z"/>
</svg>
