<?xml version="1.0" encoding="utf-8"?>
<!-- Generator: Adobe Illustrator 21.0.2, SVG Export Plug-In . SVG Version: 6.00 Build 0)  -->
<svg version="1.1" id="Layer_1" xmlns="http://www.w3.org/2000/svg" xmlns:xlink="http://www.w3.org/1999/xlink" x="0px" y="0px"
	 width="1346px" height="366px" viewBox="0 0 1346 366" style="enable-background:new 0 0 1346 366;" xml:space="preserve">
<style type="text/css">
	.Drop_x0020_Shadow{fill:none;}
	.Round_x0020_Corners_x0020_2_x0020_pt{fill:#FFFFFF;stroke:#000000;stroke-miterlimit:10;}
	.Live_x0020_Reflect_x0020_X{fill:none;}
	.Bevel_x0020_Soft{fill:url(#SVGID_1_);}
	.Dusk{fill:#FFFFFF;}
	.Foliage_GS{fill:#FFDD00;}
	.Pompadour_GS{fill-rule:evenodd;clip-rule:evenodd;fill:#44ADE2;}
	.st0{fill:#CE253D;}
	.st1{fill:#0058A3;}
</style>
<linearGradient id="SVGID_1_" gradientUnits="userSpaceOnUse" x1="-571" y1="-599" x2="-570.2929" y2="-598.2929">
	<stop  offset="0" style="stop-color:#DEDFE3"/>
	<stop  offset="0.1738" style="stop-color:#D8D9DD"/>
	<stop  offset="0.352" style="stop-color:#C9CACD"/>
	<stop  offset="0.5323" style="stop-color:#B4B5B8"/>
	<stop  offset="0.7139" style="stop-color:#989A9C"/>
	<stop  offset="0.8949" style="stop-color:#797C7E"/>
	<stop  offset="1" style="stop-color:#656B6C"/>
</linearGradient>
<g>
	<path class="st0" d="M103,182.9c0-40.1,29.5-64.8,69.7-64.8c14.8,0,23.9,1.4,33.7,5.8v23.8h-1.4c-9-4.9-20.3-6.3-31.5-6.3
		c-24.7,0-41.6,16.2-41.6,40.9c0,26.6,12.8,45,39.4,45c4,0,8.1-0.4,11.9-1.3v-38.9h29v54.2c-11.3,5.6-28.8,9.2-45,9.2
		C127,250.4,103,222.9,103,182.9z"/>
	<path class="st0" d="M235.8,249v-87.1l17.6-4.3h9.2v14.8h1.4c4.7-6.7,13-13.3,22.5-13.3c2.7,0,6.1,0.2,9.7,1.4v21.1h-14.8
		c-7.7,0-13.3,1.8-18.9,7V249H235.8z"/>
	<path class="st0" d="M302.6,204c0-29.5,17.6-46.4,47.2-46.4c30.2,0,47.2,16.2,47.2,47.2c0,28.8-17.6,45.7-47.2,45.7
		C319.5,250.4,302.6,234.2,302.6,204z M370.1,204c0-14-5.6-25.4-20.3-25.4S329.4,190,329.4,204s5.6,25.4,20.3,25.4
		S370.1,218.8,370.1,204z"/>
	<path class="st0" d="M411,204c0-28.8,21.1-46.4,49.1-46.4c22.5,0,39.4,10.6,39.4,33.1c0,5-0.5,12.8-1.4,17.5l-59.6,2.2
		c1.8,12.4,12.2,19.1,25.2,19.1c11.9,0,22.5-2.9,30.2-6.5h1.4v21.2c-9.2,4.9-23.2,6.3-34.6,6.3C429.9,250.4,411,235,411,204z
		 M473.6,192.1V190c0-9.2-5.8-13.3-15.5-13.3c-11.3,0-18.4,7-19.8,16.7L473.6,192.1z"/>
	<path class="st0" d="M520.6,125.2c0-7.6,5-12.6,14-12.6c9.2,0,14.2,5,14.2,12.6c0,7.7-5,12.8-14.2,12.8
		C525.6,137.9,520.6,132.9,520.6,125.2z M520.6,249v-87.1l17.6-4.3h9.2V249H520.6z"/>
	<path class="st1" d="M575.5,249V119.6h76v22.5h-47.2v31h41.6v22.5h-41.6V249H575.5z"/>
	<path class="st1" d="M666.9,222.9c0-21.1,19.1-28.8,40.1-28.8h14v-2.7c0-9.9-7-12.8-18.4-12.8c-7.7,0-16.7,1.4-25.2,5.8h-1.4v-21.2
		c11.2-4.1,23.2-5.6,32.9-5.6c19.1,0,33.1,5.6,38.7,18.4v46.4c0,5.6,1.4,7.7,7,7.7h5.8v18.2c-4.3,1.4-12.8,2.2-16.9,2.2
		c-8.6,0-15.7-2.7-19.3-9.2h-0.5c-5.6,5.6-14.8,9.2-25.9,9.2C680.3,250.4,666.9,240.5,666.9,222.9z M706.4,230.1
		c5.4,0,11-2.2,14.8-4.7v-15.8h-13.3c-7.7,0-14.8,2.9-14.8,10.6S698.6,230.1,706.4,230.1z"/>
	<path class="st1" d="M776.6,249V118.1l17.6-4.1h9.2v52.7h1.4c5.6-4.1,13.3-7.7,23.8-7.7c24.7,0,38,16.9,38,41.4
		c0,31.7-21.1,48.6-52.7,48.6H776.6z M813.8,227.9c16.2,0,26.1-8.5,26.1-24.7c0-14-6.3-23.2-20.3-23.2c-5.8,0-11.3,2.2-16.2,6.3
		v41.6H813.8z"/>
	<path class="st1" d="M885.5,249v-87.1l17.6-4.3h9.2v14.8h1.4c4.7-6.7,13-13.3,22.5-13.3c2.7,0,6.1,0.2,9.7,1.4v21.1h-14.8
		c-7.7,0-13.3,1.8-18.9,7V249H885.5z"/>
	<path class="st1" d="M959.3,125.2c0-7.6,5-12.6,14-12.6c9.2,0,14.2,5,14.2,12.6c0,7.7-5,12.8-14.2,12.8
		C964.3,137.9,959.3,132.9,959.3,125.2z M959.3,249v-87.1l17.6-4.3h9.2V249H959.3z"/>
	<path class="st1" d="M1007.1,204c0-28.8,21.1-46.4,49.1-46.4c22.5,0,39.4,10.6,39.4,33.1c0,5-0.5,12.8-1.4,17.5l-59.6,2.2
		c1.8,12.4,12.2,19.1,25.2,19.1c11.9,0,22.5-2.9,30.2-6.5h1.4v21.2c-9.2,4.9-23.2,6.3-34.6,6.3C1026,250.4,1007.1,235,1007.1,204z
		 M1069.8,192.1V190c0-9.2-5.8-13.3-15.5-13.3c-11.3,0-18.4,7-19.8,16.7L1069.8,192.1z"/>
	<path class="st1" d="M1178.7,249l-29.5-40.1h-5.6V249h-26.8V118.1l17.6-4.1h9.2v79.4h4.1l31.7-32.9h26.6v2.7l-33.7,34.6l35.8,48.4
		v2.9H1178.7z"/>
</g>
</svg>
