<?xml version="1.0" encoding="UTF-8"?>
<svg width="128px" height="167px" viewBox="0 0 128 167" version="1.1" xmlns="http://www.w3.org/2000/svg" xmlns:xlink="http://www.w3.org/1999/xlink">
    <!-- Generator: Sketch 45.2 (43514) - http://www.bohemiancoding.com/sketch -->
    <title>nestegg_icon_white</title>
    <desc>Created with Sketch.</desc>
    <defs>
        <polygon id="path-1" points="124.332751 0 0.00949246268 0 0.00949246268 165.492385 124.332751 165.492385"></polygon>
    </defs>
    <g id="Page-1" stroke="none" stroke-width="1" fill="none" fill-rule="evenodd">
        <g id="Powerpoint" transform="translate(-792.000000, -180.000000)">
            <g id="nestegg_text_sq_white" transform="translate(596.000000, 180.000000)">
                <g id="nestegg_icon_white" transform="translate(196.695845, 0.000000)">
                    <path d="M125.490831,91.2008919 C125.849963,93.8823544 126.152772,96.602736 126.392457,99.3602964 C126.745418,103.415002 126.628028,107.611145 126.058164,111.834025 C119.16015,119.81418 110.090893,129.321515 99.331028,138.301701 C98.5219538,138.977089 97.702596,139.648839 96.8750115,140.316951 C87.7355102,139.863369 78.8856873,137.812206 70.4370791,134.644413 C82.1863747,128.8673 92.9625348,121.352434 102.402473,113.473532 C111.32254,106.029068 119.111264,98.2281621 125.490831,91.2008919 Z" id="Fill-1" fill="#FFFFFF"></path>
                    <path d="M124.864171,118.17151 C123.118981,125.35588 120.061143,132.45292 115.731472,138.904156 C111.083488,139.845492 106.486763,140.326285 101.955061,140.400326 C110.825767,132.946686 118.554372,125.15812 124.864171,118.17151 Z" id="Fill-3" fill="#FFFFFF"></path>
                    <path d="M63.2324581,137.863465 C54.6941461,141.553027 45.6843752,144.229427 36.3229085,145.403645 C44.547811,151.447179 53.5169225,156.91642 63.0483043,161.098957 L63.0483043,161.189294 C63.0963995,161.211443 63.1433872,161.234383 63.1916405,161.255425 C63.2269208,161.240553 63.2607773,161.223783 63.2954248,161.208437 C63.3307051,161.223783 63.3653526,161.23992 63.4004747,161.255425 C63.448728,161.23375 63.4963486,161.211443 63.5438109,161.189294 L63.5438109,161.098324 C73.0753509,156.915154 82.0449371,151.447179 90.2692067,145.403645 C80.9083729,144.229427 71.8986019,141.553027 63.3602899,137.863465 C63.3387737,137.8728 63.3170992,137.880868 63.2954248,137.889411 C63.2743831,137.881343 63.2533415,137.8728 63.2324581,137.863465 Z" id="Fill-4" fill="#FFFFFF"></path>
                    <g id="Group-9">
                        <mask id="mask-2" fill="white">
                            <use xlink:href="#path-1"></use>
                        </mask>
                        <g id="Clip-6"></g>
                        <path d="M110.690975,145.447627 C101.948258,155.374528 89.679092,162.93385 74.0720594,165.492385 C71.7812118,164.747702 69.5174176,163.921383 67.2839994,163.017226 C77.3116787,158.351997 86.6638112,152.359247 95.1328282,145.873996 C100.228857,146.218889 105.421392,146.098968 110.690975,145.447627 Z" id="Fill-5" fill="#FFFFFF" mask="url(#mask-2)"></path>
                        <path d="M63.1984434,-0.123243807 C63.1663273,-0.123243807 63.1342111,-0.123243807 63.1014621,-0.121978145 C39.3479981,0.115333422 11.0152119,34.5236122 2.25319423,83.9048269 C8.99806359,91.6242558 17.5708648,100.588305 27.8111754,109.134527 C38.2603201,117.855727 50.5103432,125.957702 63.4863815,131.67169 C76.4322021,125.958968 88.3528367,117.83785 98.7809398,109.134527 C109.025522,100.584508 117.585983,91.5883426 124.332751,83.8665406 C115.562665,34.5062093 87.237947,0.115333422 63.4906531,-0.121978145 L63.2954248,-0.121978145 C63.2633086,-0.121978145 63.2311924,-0.123243807 63.1984434,-0.123243807 Z" id="Fill-7" fill="#FFFFFF" mask="url(#mask-2)"></path>
                        <path d="M77.7576517,3.78715296 C72.947242,1.27517161 68.1315369,-0.0756008436 63.4906531,-0.121978145 L63.2954248,-0.121978145 C63.2633086,-0.121978145 63.2311924,-0.123243807 63.1984434,-0.123243807 C63.1663273,-0.123243807 63.1342111,-0.123243807 63.1014621,-0.121978145 C39.3479981,0.115333422 11.0152119,34.5236122 2.25319423,83.9048269 C8.99806359,91.6242558 17.5708648,100.588305 27.8111754,109.134527 C38.2603201,117.855727 50.5103432,125.957702 63.4863815,131.67169 C76.4322021,125.958968 88.3528367,117.83785 98.7809398,109.134527 C99.4859382,108.546143 100.182961,107.955646 100.871966,107.363597 C102.357732,99.1240937 103.151428,90.4457124 103.151428,81.4838596 C103.151428,49.7154722 93.1778983,21.5091679 77.7576517,3.78715296 Z" id="Combined-Shape" fill="#FFFFFF" opacity="0.260416667" mask="url(#mask-2)"></path>
                        <path d="M1.10128388,91.2008919 C0.742152374,93.8823544 0.439342815,96.602736 0.199658132,99.3602964 C-0.153303272,103.415002 -0.0359131505,107.611145 0.533951026,111.834025 C7.43149083,119.81418 16.5012225,129.321515 27.2610872,138.301701 C28.0701614,138.977089 28.8895191,139.648839 29.7171037,140.316951 C38.856605,139.863369 47.7064279,137.812206 56.1550361,134.644413 C44.4057404,128.8673 33.6295804,121.352434 24.1896427,113.473532 C15.2695755,106.029068 7.48085163,98.2281621 1.10128388,91.2008919 Z" id="Fill-8" fill="#FFFFFF" mask="url(#mask-2)"></path>
                    </g>
                    <path d="M1.72794462,118.17151 C3.47313389,125.35588 6.53097253,132.45292 10.860643,138.904156 C15.5086273,139.845492 20.1053524,140.326285 24.6372123,140.400326 C15.7663477,132.946686 8.03774278,125.15812 1.72794462,118.17151 Z" id="Fill-10" fill="#FFFFFF"></path>
                    <path d="M15.9011407,145.447627 C24.6440152,155.374528 36.9130232,162.93385 52.5200557,165.492385 C54.8109034,164.747702 57.0746975,163.921383 59.3081158,163.017226 C49.2810693,158.351997 39.928304,152.359247 31.459287,145.873996 C26.3632584,146.218889 21.1707231,146.098968 15.9011407,145.447627 Z" id="Fill-11" fill="#FFFFFF"></path>
                    <path d="M63.4257879,164.849588 C62.2726119,165.353954 61.7256878,165.76735 60.7517612,166.345283 C62.1811678,166.428026 62.8220673,166.433563 64.3003601,166.434829 C64.9406268,166.394644 65.6259826,166.329779 66.2970997,166.250042 C65.388671,165.855789 64.6859123,165.379267 63.4257879,164.849588 Z" id="Fill-12" fill="#FFFFFF"></path>
                    <path d="M99.478003,115.866423 C90.7580686,122.864109 80.990008,129.455042 70.4370791,134.64378 C76.9476428,137.0854 83.6961509,138.862863 90.6313442,139.757686 C94.439562,132.247092 97.4274728,124.244629 99.478003,115.866423 Z" id="Fill-13" fill="#FFFFFF"></path>
                    <path d="M80.718049,155.789823 C76.39708,158.426829 71.9128406,160.863544 67.2839994,163.017226 C69.15971,163.776148 71.0569369,164.480014 72.9739397,165.127084 C75.7190017,162.160056 78.3047485,159.04289 80.718049,155.789823 Z" id="Fill-14" fill="#FFFFFF"></path>
                </g>
            </g>
        </g>
    </g>
</svg>