<svg width="92" height="84" viewBox="0 0 92 84" fill="none" xmlns="http://www.w3.org/2000/svg">
<path d="M2.5 50.0001C-4.7 18.8001 43 6.00028 69 2.5002C95 -0.999875 99.5 65.4999 79 78C58.5 90.5001 9.7 81.2001 2.5 50.0001Z" fill="#FDB62F" fill-opacity="0.13"/>
<path d="M91.3 24.7C91.3 18.2 86 13 79.6 13H12.9C12 13 11.1 13.5 10.7 14.4C10.3 15.2 10.4 16.3 11 17C13 19.2 16.7 25.1 11 32.5H2.60002C1.70002 32.5 0.800015 33 0.400015 33.9C1.51396e-05 34.7 0.100015 35.8 0.700015 36.5C2.60002 38.7 6.40002 44.6 0.500016 52C-0.0999845 52.7 -0.0999843 53.7 0.300016 54.5C0.700016 55.3 1.60002 55.9 2.50002 55.9H11.1C13 58.1 16.7 64 10.9 71.4C10.3 72.1 10.3 73.1 10.7 73.9C11.1 74.7 12 75.3 12.9 75.3H79.6C86.1 75.3 91.3 70 91.3 63.6C91.3 57.1 86 51.9 79.6 51.9H78C79.8 49.8 80.9 47.2 80.9 44.2C80.9 41.2 79.8 38.6 78 36.5H79.5C86 36.5 91.3 31.2 91.3 24.7ZM16 17H79.6C83.9 17 87.3 20.5 87.3 24.7C87.3 29 83.8 32.4 79.6 32.4H69.2H66.1V23.3C66.1 22.2 65.2 21.3 64.1 21.3H50.8C49.7 21.3 48.8 22.2 48.8 23.3V32.4H15.8C19.6 25.9 17.8 20.3 16 17ZM62.1 25.3V38.1L58.6 35.8C58.3 35.6 57.9 35.5 57.5 35.5C57.1 35.5 56.7 35.6 56.4 35.8L52.9 38.1V25.3H62.1ZM87.3 63.6C87.3 67.9 83.8 71.3 79.6 71.3H15.8C19.6 64.8 17.8 59.2 16 55.9H69.3C69.5 55.9 69.6 55.9 69.8 55.9H79.7C83.8 55.8 87.3 59.3 87.3 63.6ZM76.9 44.2C76.9 48.3 73.7 51.6 69.7 51.9H12.9C12.8 51.9 12.8 51.9 12.7 51.9H5.40002C9.20002 45.4 7.40002 39.8 5.50002 36.5H12.7H48.7V41.8C48.7 42.5 49.1 43.2 49.7 43.6C50.3 44 51.1 43.9 51.7 43.5L57.2 39.9L62.7 43.5C63 43.7 63.4 43.8 63.8 43.8C64.1 43.8 64.5 43.7 64.8 43.6C65.4 43.2 65.8 42.6 65.8 41.8V36.5H68.9C73.5 36.5 76.9 39.9 76.9 44.2ZM44.6 63.6C44.6 64.7 43.7 65.6 42.6 65.6H38C36.9 65.6 36 64.7 36 63.6C36 62.5 36.9 61.6 38 61.6H42.5C43.7 61.6 44.6 62.5 44.6 63.6ZM70.3 63.6C70.3 62.5 71.2 61.6 72.3 61.6H76.8C77.9 61.6 78.8 62.5 78.8 63.6C78.8 64.7 77.9 65.6 76.8 65.6H72.3C71.2 65.6 70.3 64.7 70.3 63.6ZM18.6 23.3C18.6 22.2 19.5 21.3 20.6 21.3H43.9C45 21.3 45.9 22.2 45.9 23.3C45.9 24.4 45 25.3 43.9 25.3H20.6C19.5 25.3 18.6 24.4 18.6 23.3ZM68.7 23.3C68.7 22.2 69.6 21.3 70.7 21.3H75.3C76.4 21.3 77.3 22.2 77.3 23.3C77.3 24.4 76.4 25.3 75.3 25.3H70.7C69.6 25.3 68.7 24.4 68.7 23.3ZM66.1 63.6C66.1 64.7 65.2 65.6 64.1 65.6H47.7C46.6 65.6 45.7 64.7 45.7 63.6C45.7 62.5 46.6 61.6 47.7 61.6H64.1C65.2 61.6 66.1 62.5 66.1 63.6Z" fill="#F29C1F" fill-opacity="0.3"/>
<path d="M91.3 22.7C91.3 16.2 86 11 79.6 11H12.9C12 11 11.1 11.5 10.7 12.4C10.3 13.2 10.4 14.3 11 15C13 17.2 16.7 23.1 11 30.5H2.60002C1.70002 30.5 0.800015 31 0.400015 31.9C1.51396e-05 32.7 0.100015 33.8 0.700015 34.5C2.60002 36.7 6.40002 42.6 0.500016 50C-0.0999845 50.7 -0.0999843 51.7 0.300016 52.5C0.700016 53.3 1.60002 53.9 2.50002 53.9H11.1C13 56.1 16.7 62 10.9 69.4C10.3 70.1 10.3 71.1 10.7 71.9C11.1 72.7 12 73.3 12.9 73.3H79.6C86.1 73.3 91.3 68 91.3 61.6C91.3 55.1 86 49.9 79.6 49.9H78C79.8 47.8 80.9 45.2 80.9 42.2C80.9 39.2 79.8 36.6 78 34.5H79.5C86 34.5 91.3 29.2 91.3 22.7ZM16 15H79.6C83.9 15 87.3 18.5 87.3 22.7C87.3 27 83.8 30.4 79.6 30.4H69.2H66.1V21.3C66.1 20.2 65.2 19.3 64.1 19.3H50.8C49.7 19.3 48.8 20.2 48.8 21.3V30.4H15.8C19.6 23.9 17.8 18.3 16 15ZM62.1 23.3V36.1L58.6 33.8C58.3 33.6 57.9 33.5 57.5 33.5C57.1 33.5 56.7 33.6 56.4 33.8L52.9 36.1V23.3H62.1ZM87.3 61.6C87.3 65.9 83.8 69.3 79.6 69.3H15.8C19.6 62.8 17.8 57.2 16 53.9H69.3C69.5 53.9 69.6 53.9 69.8 53.9H79.7C83.8 53.8 87.3 57.3 87.3 61.6ZM76.9 42.2C76.9 46.3 73.7 49.6 69.7 49.9H12.9C12.8 49.9 12.8 49.9 12.7 49.9H5.40002C9.20002 43.4 7.40002 37.8 5.50002 34.5H12.7H48.7V39.8C48.7 40.5 49.1 41.2 49.7 41.6C50.3 42 51.1 41.9 51.7 41.5L57.2 37.9L62.7 41.5C63 41.7 63.4 41.8 63.8 41.8C64.1 41.8 64.5 41.7 64.8 41.6C65.4 41.2 65.8 40.6 65.8 39.8V34.5H68.9C73.5 34.5 76.9 37.9 76.9 42.2ZM44.6 61.6C44.6 62.7 43.7 63.6 42.6 63.6H38C36.9 63.6 36 62.7 36 61.6C36 60.5 36.9 59.6 38 59.6H42.5C43.7 59.6 44.6 60.5 44.6 61.6ZM70.3 61.6C70.3 60.5 71.2 59.6 72.3 59.6H76.8C77.9 59.6 78.8 60.5 78.8 61.6C78.8 62.7 77.9 63.6 76.8 63.6H72.3C71.2 63.6 70.3 62.7 70.3 61.6ZM18.6 21.3C18.6 20.2 19.5 19.3 20.6 19.3H43.9C45 19.3 45.9 20.2 45.9 21.3C45.9 22.4 45 23.3 43.9 23.3H20.6C19.5 23.3 18.6 22.4 18.6 21.3ZM68.7 21.3C68.7 20.2 69.6 19.3 70.7 19.3H75.3C76.4 19.3 77.3 20.2 77.3 21.3C77.3 22.4 76.4 23.3 75.3 23.3H70.7C69.6 23.3 68.7 22.4 68.7 21.3ZM66.1 61.6C66.1 62.7 65.2 63.6 64.1 63.6H47.7C46.6 63.6 45.7 62.7 45.7 61.6C45.7 60.5 46.6 59.6 47.7 59.6H64.1C65.2 59.6 66.1 60.5 66.1 61.6Z" fill="black"/>
</svg>
