<svg width="92" height="84" viewBox="0 0 92 84" fill="none" xmlns="http://www.w3.org/2000/svg">
<g clip-path="url(#clip0)">
<path d="M2.5 50.0001C-4.7 18.8001 43 6.00028 69 2.5002C95 -0.999875 99.5 65.4999 79 78C58.5 90.5001 9.7 81.2001 2.5 50.0001Z" fill="#FDB62F" fill-opacity="0.13"/>
<path d="M51.5 86C50.12 86 49 85.2125 49 84.25V17.75C49 16.784 50.12 16 51.5 16C52.875 16 54 16.784 54 17.75V84.25C54 85.2125 52.875 86 51.5 86Z" fill="#F29C1F" fill-opacity="0.3"/>
<path d="M51.172 45.0839C50.632 45.0839 50.092 44.8679 49.696 44.4399C48.948 43.6279 49 42.3639 49.812 41.6119L59.484 32.6959C60.296 31.9479 61.564 31.9999 62.312 32.8119C63.06 33.6239 63.008 34.8879 62.196 35.6399L52.524 44.5559C52.14 44.9079 51.656 45.0839 51.172 45.0839V45.0839Z" fill="#F29C1F" fill-opacity="0.3"/>
<path d="M51.172 59.1681C50.852 59.1681 50.532 59.0881 50.236 58.9321L28.236 47.2681C27.26 46.7521 26.888 45.5401 27.404 44.5641C27.92 43.5881 29.132 43.2201 30.108 43.7321L52.108 55.3961C53.084 55.9121 53.456 57.1281 52.94 58.1001C52.58 58.7761 51.888 59.1681 51.172 59.1681Z" fill="#F29C1F" fill-opacity="0.3"/>
<path d="M54.5 71.84C48.54 71.84 42.86 69.184 38.98 64.66C35.98 66.308 32.624 67.168 29.168 67.168C17.864 67.168 8.668 57.972 8.668 46.668C8.668 35.364 17.864 26.168 29.168 26.168C29.732 26.168 30.304 26.196 30.888 26.252C30.74 25.312 30.668 24.404 30.668 23.5C30.668 12.196 39.864 3 51.168 3C59.536 3 67.064 8.168 70.152 15.952C76.972 19.452 81.34 26.512 81.34 34.164C81.34 39.78 78.98 45.132 74.84 49.024C74.932 49.752 75.004 50.524 75.004 51.336C75 62.644 65.812 71.84 54.5 71.84V71.84ZM39.46 60.036C40.084 60.036 40.7 60.324 41.092 60.872C44.2 65.236 49.216 67.84 54.508 67.84C63.6 67.84 71.008 60.432 71.008 51.34C71.008 50.396 70.876 49.492 70.724 48.588C70.608 47.892 70.868 47.18 71.408 46.728C75.172 43.552 77.336 38.976 77.336 34.168C77.336 27.788 73.564 21.92 67.724 19.216C67.232 18.988 66.852 18.572 66.672 18.064C64.352 11.448 58.124 7.004 51.172 7.004C42.08 7.004 34.672 14.408 34.672 23.504C34.672 24.936 34.916 26.42 35.432 28.164C35.64 28.844 35.46 29.588 34.968 30.112C34.476 30.628 33.748 30.848 33.048 30.68C31.632 30.332 30.364 30.168 29.172 30.168C20.076 30.168 12.672 37.572 12.672 46.668C12.672 55.768 20.076 63.168 29.172 63.168C32.456 63.168 35.628 62.208 38.344 60.38C38.684 60.144 39.076 60.036 39.46 60.036V60.036Z" fill="#F29C1F" fill-opacity="0.3"/>
<path d="M51.5 83C50.12 83 49 82.2125 49 81.25V14.75C49 13.784 50.12 13 51.5 13C52.875 13 54 13.784 54 14.75V81.25C54 82.2125 52.875 83 51.5 83Z" fill="black"/>
<path d="M51.172 42.0839C50.632 42.0839 50.092 41.8679 49.696 41.4399C48.948 40.6279 49 39.3639 49.812 38.6119L59.484 29.6959C60.296 28.9479 61.564 28.9999 62.312 29.8119C63.06 30.6239 63.008 31.8879 62.196 32.6399L52.524 41.5559C52.14 41.9079 51.656 42.0839 51.172 42.0839V42.0839Z" fill="black"/>
<path d="M51.172 56.1681C50.852 56.1681 50.532 56.0881 50.236 55.9321L28.236 44.2681C27.26 43.7521 26.888 42.5401 27.404 41.5641C27.92 40.5881 29.132 40.2201 30.108 40.7321L52.108 52.3961C53.084 52.9121 53.456 54.1281 52.94 55.1001C52.58 55.7761 51.888 56.1681 51.172 56.1681Z" fill="black"/>
<path d="M54.5 68.84C48.54 68.84 42.86 66.184 38.98 61.66C35.98 63.308 32.624 64.168 29.168 64.168C17.864 64.168 8.668 54.972 8.668 43.668C8.668 32.364 17.864 23.168 29.168 23.168C29.732 23.168 30.304 23.196 30.888 23.252C30.74 22.312 30.668 21.404 30.668 20.5C30.668 9.196 39.864 0 51.168 0C59.536 0 67.064 5.168 70.152 12.952C76.972 16.452 81.34 23.512 81.34 31.164C81.34 36.78 78.98 42.132 74.84 46.024C74.932 46.752 75.004 47.524 75.004 48.336C75 59.644 65.812 68.84 54.5 68.84V68.84ZM39.46 57.036C40.084 57.036 40.7 57.324 41.092 57.872C44.2 62.236 49.216 64.84 54.508 64.84C63.6 64.84 71.008 57.432 71.008 48.34C71.008 47.396 70.876 46.492 70.724 45.588C70.608 44.892 70.868 44.18 71.408 43.728C75.172 40.552 77.336 35.976 77.336 31.168C77.336 24.788 73.564 18.92 67.724 16.216C67.232 15.988 66.852 15.572 66.672 15.064C64.352 8.448 58.124 4.004 51.172 4.004C42.08 4.004 34.672 11.408 34.672 20.504C34.672 21.936 34.916 23.42 35.432 25.164C35.64 25.844 35.46 26.588 34.968 27.112C34.476 27.628 33.748 27.848 33.048 27.68C31.632 27.332 30.364 27.168 29.172 27.168C20.076 27.168 12.672 34.572 12.672 43.668C12.672 52.768 20.076 60.168 29.172 60.168C32.456 60.168 35.628 59.208 38.344 57.38C38.684 57.144 39.076 57.036 39.46 57.036V57.036Z" fill="black"/>
</g>
<defs>
<clipPath id="clip0">
<rect width="92" height="84" fill="white"/>
</clipPath>
</defs>
</svg>
