<svg width="92" height="84" viewBox="0 0 92 84" fill="none" xmlns="http://www.w3.org/2000/svg">
<path d="M10.6319 46.69H18.2019C18.5997 46.69 18.9813 46.532 19.2626 46.2507C19.5439 45.9694 19.7019 45.5878 19.7019 45.19V42.72H38.2119C40.2444 42.7258 42.2578 42.3284 44.1356 41.5508C46.0135 40.7732 47.7185 39.6309 49.1519 38.19L55.9619 31.39C56.9118 30.4469 57.4994 29.1997 57.6219 27.8668C57.7444 26.5339 57.3939 25.2004 56.6319 24.1L58.1119 23.77C60.491 23.2444 62.9716 23.4216 65.2519 24.28L74.0419 27.58C75.4998 28.0912 77.0997 28.0123 78.5002 27.3601C79.9007 26.7079 80.9907 25.534 81.5376 24.0891C82.0845 22.6443 82.0449 21.0429 81.4272 19.6268C80.8096 18.2107 79.6629 17.0922 78.2319 16.51L64.2719 11.2C62.1967 10.4066 59.9937 9.99991 57.7719 10H45.4919C42.9552 10.0035 40.4607 10.6504 38.2419 11.88L25.9719 18.7C24.5475 19.5096 22.9403 19.9433 21.3019 19.96H19.7419V17.45C19.7419 17.0522 19.5839 16.6706 19.3026 16.3893C19.0213 16.108 18.6397 15.95 18.2419 15.95H10.6319C10.2341 15.95 9.85256 16.108 9.57125 16.3893C9.28995 16.6706 9.13191 17.0522 9.13191 17.45V45.19C9.13191 45.5878 9.28995 45.9694 9.57125 46.2507C9.85256 46.532 10.2341 46.69 10.6319 46.69V46.69ZM21.3019 22.96C23.447 22.9579 25.5563 22.4108 27.4319 21.37L39.7019 14.56C41.4651 13.5444 43.4575 12.9938 45.4919 12.96H57.7619C59.6211 12.9583 61.4649 13.2972 63.2019 13.96L77.1219 19.27C77.8175 19.5635 78.3725 20.115 78.6702 20.8088C78.968 21.5026 78.9854 22.2847 78.7189 22.9911C78.4524 23.6975 77.9226 24.2732 77.2408 24.5974C76.5589 24.9217 75.778 24.9692 75.0619 24.73L66.2719 21.43C63.4486 20.3675 60.3774 20.1487 57.4319 20.8L53.6319 21.69C53.5029 21.72 53.3785 21.7671 53.2619 21.83C52.3163 21.6019 51.328 21.62 50.3914 21.8826C49.4548 22.1452 48.6011 22.6435 47.9119 23.33L42.2319 28.96C41.967 29.2443 41.8227 29.6204 41.8296 30.009C41.8364 30.3976 41.9938 30.7684 42.2687 31.0432C42.5435 31.3181 42.9143 31.4755 43.3029 31.4823C43.6915 31.4892 44.0676 31.345 44.3519 31.08L50.0119 25.42C50.5185 24.9134 51.2055 24.6289 51.9219 24.6289C52.6383 24.6289 53.3254 24.9134 53.8319 25.42C54.3385 25.9266 54.6231 26.6136 54.6231 27.33C54.6231 28.0464 54.3385 28.7334 53.8319 29.24L47.0319 36.04C45.8761 37.2014 44.5015 38.1219 42.9875 38.7485C41.4736 39.375 39.8504 39.695 38.2119 39.69H19.7419V22.96H21.3019V22.96ZM12.1819 18.96H16.7519V43.69H12.1719V18.96H12.1819Z" fill="#F29C1F" fill-opacity="0.3"/>
<path d="M89.0019 55.4299C88.1919 55.3499 69.0719 53.4299 60.2719 57.5399C58.0519 58.5399 56.2719 59.4499 54.7219 60.2199C50.4919 62.3199 48.5519 63.2699 45.6219 63.2999C42.6919 63.3299 40.7519 62.2999 36.5219 60.2199C34.9619 59.4499 33.1919 58.5699 30.9719 57.5399C22.1719 53.4499 3.05191 55.3399 2.24191 55.4299H2.15191H2.00191H1.86191L1.72191 55.4899L1.63191 55.6499L1.51191 55.7299L1.40191 55.8199L1.30191 55.9199L1.21191 56.0299L1.13191 56.1499L1.06191 56.2699L1.00191 56.3999V56.5399C1.00191 56.5399 1.00191 56.6299 1.00191 56.6799C0.999362 56.7299 0.999362 56.7799 1.00191 56.8299C1.00191 56.8299 1.00191 56.8299 1.00191 56.8999V76.4199C0.990431 76.8046 1.12728 77.1791 1.38414 77.4657C1.64101 77.7523 1.99824 77.9293 2.38191 77.9599H88.8819C89.2797 77.9599 89.6613 77.8019 89.9426 77.5206C90.2239 77.2393 90.3819 76.8577 90.3819 76.4599V56.9599C90.3933 56.5762 90.2561 56.203 89.999 55.9179C89.7419 55.6329 89.3847 55.4581 89.0019 55.4299V55.4299ZM3.88191 74.9599V58.2999C8.37191 57.9499 22.8819 57.1099 29.7019 60.2999C31.8919 61.2999 33.6419 62.1799 35.1819 62.9499C39.5619 65.1199 41.9719 66.3099 45.6019 66.3499C49.2319 66.3499 51.6019 65.1199 56.0219 62.9499C57.5619 62.1899 59.3119 61.3199 61.5019 60.2999C68.3319 57.1299 82.9619 57.9899 87.3719 58.2999V74.9599H3.88191Z" fill="#F29C1F" fill-opacity="0.3"/>
<path d="M63.8019 33.8201C62.227 33.477 60.5829 33.6611 59.1229 34.3441C57.6629 35.0271 56.4679 36.1712 55.7219 37.6001C55.3725 38.2924 55.183 39.0544 55.1674 39.8298C55.1519 40.6052 55.3106 41.3742 55.6319 42.0801V42.0801C56.1048 43.0165 56.837 43.7972 57.7413 44.3291C58.6455 44.8611 59.6837 45.1217 60.7319 45.0801C61.804 45.0759 62.8621 44.837 63.8319 44.3801C67.0719 42.8701 68.6519 39.3801 67.3619 36.6401C67.0211 35.9309 66.5235 35.3085 65.9067 34.82C65.29 34.3314 64.5702 33.9895 63.8019 33.8201V33.8201ZM62.5219 41.6201C60.8119 42.4201 58.8819 42.0501 58.3019 40.8101C58.1789 40.5049 58.125 40.1762 58.144 39.8477C58.1631 39.5192 58.2545 39.199 58.4119 38.9101C58.8496 38.0822 59.5545 37.4266 60.4119 37.0501C60.9933 36.7732 61.628 36.6265 62.2719 36.6201C62.5549 36.6193 62.837 36.6529 63.1119 36.7201C63.4336 36.7864 63.7366 36.923 63.9994 37.1201C64.2622 37.3171 64.4781 37.5698 64.6319 37.8601C65.1819 39.1001 64.2319 40.8201 62.5219 41.6201Z" fill="#F29C1F" fill-opacity="0.3"/>
<path d="M49.2219 48.18C46.1319 46.39 42.3719 47.08 40.8519 49.72C39.3319 52.36 40.6319 55.96 43.7019 57.74C44.8035 58.3855 46.0552 58.7303 47.3319 58.74C47.6668 58.7396 48.0012 58.7128 48.3319 58.66C49.1041 58.5677 49.8441 58.2966 50.4931 57.8682C51.1421 57.4398 51.6823 56.8659 52.0706 56.1922C52.4589 55.5184 52.6848 54.7633 52.7301 53.987C52.7755 53.2107 52.6391 52.4344 52.3319 51.72C51.7285 50.2204 50.6313 48.9716 49.2219 48.18ZM49.4719 54.7C49.2924 54.9759 49.0541 55.2087 48.774 55.3816C48.4939 55.5545 48.179 55.6632 47.8519 55.7C46.9308 55.8142 45.998 55.6171 45.2019 55.14C43.5719 54.2 42.7619 52.4 43.4519 51.22C43.69 50.8808 44.0129 50.6099 44.3885 50.4344C44.764 50.259 45.1789 50.185 45.5919 50.22C46.3411 50.2287 47.0751 50.432 47.7219 50.81C48.5306 51.2572 49.1675 51.9608 49.5319 52.81C49.661 53.1102 49.7225 53.4351 49.7122 53.7617C49.7018 54.0883 49.6198 54.4086 49.4719 54.7V54.7Z" fill="#F29C1F" fill-opacity="0.3"/>
<path d="M10.6319 44.69H18.2019C18.5997 44.69 18.9813 44.532 19.2626 44.2507C19.5439 43.9694 19.7019 43.5878 19.7019 43.19V40.72H38.2119C40.2444 40.7258 42.2578 40.3284 44.1356 39.5508C46.0135 38.7732 47.7185 37.6309 49.1519 36.19L55.9619 29.39C56.9118 28.4469 57.4994 27.1997 57.6219 25.8668C57.7444 24.5339 57.3939 23.2004 56.6319 22.1L58.1119 21.77C60.491 21.2444 62.9716 21.4216 65.2519 22.28L74.0419 25.58C75.4998 26.0912 77.0997 26.0123 78.5002 25.3601C79.9007 24.7079 80.9907 23.534 81.5376 22.0891C82.0845 20.6443 82.0449 19.0429 81.4272 17.6268C80.8096 16.2107 79.6629 15.0922 78.2319 14.51L64.2719 9.2C62.1967 8.40661 59.9937 7.99991 57.7719 8H45.4919C42.9552 8.00353 40.4607 8.65036 38.2419 9.88L25.9719 16.7C24.5475 17.5096 22.9403 17.9433 21.3019 17.96H19.7419V15.45C19.7419 15.0522 19.5839 14.6706 19.3026 14.3893C19.0213 14.108 18.6397 13.95 18.2419 13.95H10.6319C10.2341 13.95 9.85256 14.108 9.57125 14.3893C9.28995 14.6706 9.13191 15.0522 9.13191 15.45V43.19C9.13191 43.5878 9.28995 43.9694 9.57125 44.2507C9.85256 44.532 10.2341 44.69 10.6319 44.69V44.69ZM21.3019 20.96C23.447 20.9579 25.5563 20.4108 27.4319 19.37L39.7019 12.56C41.4651 11.5444 43.4575 10.9938 45.4919 10.96H57.7619C59.6211 10.9583 61.4649 11.2972 63.2019 11.96L77.1219 17.27C77.8175 17.5635 78.3725 18.115 78.6702 18.8088C78.968 19.5026 78.9854 20.2847 78.7189 20.9911C78.4524 21.6975 77.9226 22.2732 77.2408 22.5974C76.5589 22.9217 75.778 22.9692 75.0619 22.73L66.2719 19.43C63.4486 18.3675 60.3774 18.1487 57.4319 18.8L53.6319 19.69C53.5029 19.72 53.3785 19.7671 53.2619 19.83C52.3163 19.6019 51.328 19.62 50.3914 19.8826C49.4548 20.1452 48.6011 20.6435 47.9119 21.33L42.2319 26.96C41.967 27.2443 41.8227 27.6204 41.8296 28.009C41.8364 28.3976 41.9938 28.7684 42.2687 29.0432C42.5435 29.3181 42.9143 29.4755 43.3029 29.4823C43.6915 29.4892 44.0676 29.345 44.3519 29.08L50.0119 23.42C50.5185 22.9134 51.2055 22.6289 51.9219 22.6289C52.6383 22.6289 53.3254 22.9134 53.8319 23.42C54.3385 23.9266 54.6231 24.6136 54.6231 25.33C54.6231 26.0464 54.3385 26.7334 53.8319 27.24L47.0319 34.04C45.8761 35.2014 44.5015 36.1219 42.9875 36.7485C41.4736 37.375 39.8504 37.695 38.2119 37.69H19.7419V20.96H21.3019V20.96ZM12.1819 16.96H16.7519V41.69H12.1719V16.96H12.1819Z" fill="black"/>
<path d="M89.0019 53.4299C88.1919 53.3499 69.0719 51.4299 60.2719 55.5399C58.0519 56.5399 56.2719 57.4499 54.7219 58.2199C50.4919 60.3199 48.5519 61.2699 45.6219 61.2999C42.6919 61.3299 40.7519 60.2999 36.5219 58.2199C34.9619 57.4499 33.1919 56.5699 30.9719 55.5399C22.1719 51.4499 3.05191 53.3399 2.24191 53.4299H2.15191H2.00191H1.86191L1.72191 53.4899L1.63191 53.6499L1.51191 53.7299L1.40191 53.8199L1.30191 53.9199L1.21191 54.0299L1.13191 54.1499L1.06191 54.2699L1.00191 54.3999V54.5399C1.00191 54.5399 1.00191 54.6299 1.00191 54.6799C0.999362 54.7299 0.999362 54.7799 1.00191 54.8299C1.00191 54.8299 1.00191 54.8299 1.00191 54.8999V74.4199C0.990431 74.8046 1.12728 75.1791 1.38414 75.4657C1.64101 75.7523 1.99824 75.9293 2.38191 75.9599H88.8819C89.2797 75.9599 89.6613 75.8019 89.9426 75.5206C90.2239 75.2393 90.3819 74.8577 90.3819 74.4599V54.9599C90.3933 54.5762 90.2561 54.203 89.999 53.9179C89.7419 53.6329 89.3847 53.4581 89.0019 53.4299V53.4299ZM3.88191 72.9599V56.2999C8.37191 55.9499 22.8819 55.1099 29.7019 58.2999C31.8919 59.2999 33.6419 60.1799 35.1819 60.9499C39.5619 63.1199 41.9719 64.3099 45.6019 64.3499C49.2319 64.3499 51.6019 63.1199 56.0219 60.9499C57.5619 60.1899 59.3119 59.3199 61.5019 58.2999C68.3319 55.1299 82.9619 55.9899 87.3719 56.2999V72.9599H3.88191Z" fill="black"/>
<path d="M63.8019 31.8201C62.227 31.477 60.5829 31.6611 59.1229 32.3441C57.6629 33.0271 56.4679 34.1712 55.7219 35.6001C55.3725 36.2924 55.183 37.0544 55.1674 37.8298C55.1519 38.6052 55.3106 39.3742 55.6319 40.0801V40.0801C56.1048 41.0165 56.837 41.7972 57.7413 42.3291C58.6455 42.8611 59.6837 43.1217 60.7319 43.0801C61.804 43.0759 62.8621 42.837 63.8319 42.3801C67.0719 40.8701 68.6519 37.3801 67.3619 34.6401C67.0211 33.9309 66.5235 33.3085 65.9067 32.82C65.29 32.3314 64.5702 31.9895 63.8019 31.8201V31.8201ZM62.5219 39.6201C60.8119 40.4201 58.8819 40.0501 58.3019 38.8101C58.1789 38.5049 58.125 38.1762 58.144 37.8477C58.1631 37.5192 58.2545 37.199 58.4119 36.9101C58.8496 36.0822 59.5545 35.4266 60.4119 35.0501C60.9933 34.7732 61.628 34.6265 62.2719 34.6201C62.5549 34.6193 62.837 34.6529 63.1119 34.7201C63.4336 34.7864 63.7366 34.923 63.9994 35.1201C64.2622 35.3171 64.4781 35.5698 64.6319 35.8601C65.1819 37.1001 64.2319 38.8201 62.5219 39.6201Z" fill="black"/>
<path d="M49.2219 46.18C46.1319 44.39 42.3719 45.08 40.8519 47.72C39.3319 50.36 40.6319 53.96 43.7019 55.74C44.8035 56.3855 46.0552 56.7303 47.3319 56.74C47.6668 56.7396 48.0012 56.7128 48.3319 56.66C49.1041 56.5677 49.8441 56.2966 50.4931 55.8682C51.1421 55.4398 51.6823 54.8659 52.0706 54.1922C52.4589 53.5184 52.6848 52.7633 52.7301 51.987C52.7755 51.2107 52.6391 50.4344 52.3319 49.72C51.7285 48.2204 50.6313 46.9716 49.2219 46.18ZM49.4719 52.7C49.2924 52.9759 49.0541 53.2087 48.774 53.3816C48.4939 53.5545 48.179 53.6632 47.8519 53.7C46.9308 53.8142 45.998 53.6171 45.2019 53.14C43.5719 52.2 42.7619 50.4 43.4519 49.22C43.69 48.8808 44.0129 48.6099 44.3885 48.4344C44.764 48.259 45.1789 48.185 45.5919 48.22C46.3411 48.2287 47.0751 48.432 47.7219 48.81C48.5306 49.2572 49.1675 49.9608 49.5319 50.81C49.661 51.1102 49.7225 51.4351 49.7122 51.7617C49.7018 52.0883 49.6198 52.4086 49.4719 52.7V52.7Z" fill="black"/>
<path d="M2.5 50.0001C-4.7 18.8001 43 6.00028 69 2.5002C95 -0.999875 99.5 65.4999 79 78C58.5 90.5001 9.7 81.2001 2.5 50.0001Z" fill="#FDB62F" fill-opacity="0.13"/>
</svg>
