<svg width="92" height="84" viewBox="0 0 92 84" fill="none" xmlns="http://www.w3.org/2000/svg">
<g clip-path="url(#clip0)">
<path d="M2.5 50.0001C-4.7 18.8001 43 6.00028 69 2.5002C95 -0.999875 99.5 65.4999 79 78C58.5 90.5001 9.7 81.2001 2.5 50.0001Z" fill="#FDB62F" fill-opacity="0.13"/>
<path d="M84.7906 80.1028L79.0801 58.6238C78.4671 56.3254 78.0762 53.9726 77.9128 51.5982L76.9399 37.6157C76.9399 37.6157 76.9399 37.5568 76.9399 37.5274C76.9294 37.451 76.9132 37.3756 76.8913 37.3017C76.8913 37.3017 76.8913 37.2134 76.8913 37.1643V37.027L70.1497 22.6814C68.8684 19.8984 66.5509 17.7371 63.6999 16.6665L62.7271 16.2936C62.9997 15.5817 63.1922 14.8411 63.301 14.0859C63.3594 13.464 63.2932 12.8367 63.1065 12.2412V12.2412C63.4802 12.0781 63.7812 11.7817 63.9517 11.4087C64.1222 11.0357 64.1503 10.6124 64.0306 10.2198L63.0578 6.90328C62.4352 4.94082 59.8475 1.33972 54.5748 2.10507C53.6451 2.19105 52.7434 2.472 51.9276 2.92991C51.1117 3.38782 50.3997 4.0126 49.8372 4.7642C48.8761 6.20752 48.4301 7.9376 48.5725 9.67034C48.1374 10.3753 47.8525 11.164 47.7359 11.986C47.6976 12.308 47.7309 12.6344 47.8336 12.9417C47.9362 13.249 48.1056 13.5292 48.3293 13.7621C48.8664 14.262 49.5484 14.575 50.275 14.655V14.7727C50.4237 16.3607 51.1896 17.8248 52.4055 18.8448L48.5142 20.7288C47.5336 20.737 46.5635 20.5259 45.6735 20.1106C45.0315 19.8947 44.3019 19.6396 43.5431 19.4335L38.5525 17.9323L36.9279 15.5479C36.6687 15.1813 36.2777 14.9313 35.8384 14.8512C35.6212 14.8169 35.3994 14.8261 35.1857 14.8783C34.9721 14.9305 34.7707 15.0247 34.5931 15.1554L33.669 15.8324L32.5308 14.4195L34.8558 12.5061C35.1945 12.2232 35.4109 11.8186 35.459 11.3777C35.4803 11.1603 35.4587 10.9408 35.3952 10.7319C35.3317 10.523 35.2278 10.3289 35.0893 10.1609L31.198 5.36275C30.9204 5.02088 30.5197 4.80407 30.0838 4.75992C29.6479 4.71577 29.2124 4.84788 28.873 5.12725L21.4504 11.2599C21.1144 11.5438 20.9016 11.9486 20.8569 12.3883C20.8337 12.6051 20.8535 12.8244 20.9153 13.0333C20.9771 13.2422 21.0797 13.4366 21.2169 13.6051L25.1082 18.4033C25.264 18.5944 25.4602 18.7482 25.6823 18.8534C25.9044 18.9586 26.1469 19.0127 26.3923 19.0116C26.783 19.018 27.1629 18.8822 27.4624 18.6289L30.0014 16.5389L31.0229 17.7949L30.8575 17.9126C30.6037 18.102 30.4085 18.3604 30.2948 18.6575C30.1811 18.9546 30.1536 19.2782 30.2155 19.5905L31.2856 24.9382C31.3398 25.218 31.4638 25.4793 31.646 25.6973C31.8281 25.9154 32.0623 26.083 32.3265 26.1844L36.0329 27.4992C36.4068 27.6365 36.8167 27.6365 37.1906 27.4992L38.0661 27.146L41.9574 29.707C43.1742 30.6836 44.6828 31.2162 46.2378 31.2181C46.5797 31.2164 46.921 31.1901 47.2592 31.1396C48.2434 30.9752 49.2177 30.7557 50.1777 30.4822L49.9345 30.8845C49.8959 30.8981 49.8598 30.918 49.8275 30.9433L44.3797 34.7701C44.0392 35.0048 43.6605 35.1775 43.261 35.2804L40.1674 36.0359L38.0175 35.614C37.9562 35.6044 37.8939 35.6044 37.8326 35.614C36.2761 33.7889 35.1282 32.4642 34.5834 31.8264C34.4292 31.643 34.2368 31.496 34.0199 31.3959C33.803 31.2959 33.567 31.2452 33.3285 31.2475H6.70243C6.31755 31.2482 5.94511 31.3852 5.65002 31.6344C5.35492 31.8836 5.15588 32.2294 5.08755 32.6114C5.03487 32.7732 5.00539 32.9417 5 33.1119V80.3776C5 80.82 5.17424 81.2443 5.48438 81.5571C5.79453 81.8699 6.21518 82.0457 6.65379 82.0457H66.1806C66.1853 82.111 66.1853 82.1766 66.1806 82.2419L66.0346 84.2044C66.0151 84.4322 66.0431 84.6617 66.1169 84.878C66.1906 85.0944 66.3084 85.2927 66.4627 85.4603C66.6181 85.6293 66.8062 85.7643 67.0153 85.8571C67.2245 85.9499 67.4502 85.9986 67.6787 86H80.3253C81.0431 85.9993 81.7511 85.832 82.3946 85.5112C83.038 85.1903 83.5996 84.7244 84.036 84.1496C84.4724 83.5747 84.7718 82.9064 84.9111 82.1961C85.0503 81.4859 85.0258 80.7529 84.8392 80.0538L84.7906 80.1028ZM26.616 14.9886L24.826 12.7808L29.6901 8.76761L31.4801 10.9754L26.616 14.9886ZM67.1534 24.0944L72.9903 36.605L63.3594 39.0287L62.4839 38.3124C60.9839 37.0636 59.8002 35.4727 59.0303 33.6712L56.9388 29.0692L61.657 27.666C62.0766 27.5366 62.4291 27.246 62.6384 26.8569C62.8476 26.4677 62.897 26.0113 62.7757 25.5858C62.6496 25.1636 62.3629 24.8089 61.9783 24.5992C61.5936 24.3896 61.1423 24.3422 60.7231 24.4672L53.9133 26.4886C53.8079 26.4264 53.6972 26.3739 53.5826 26.3316L51.4132 23.0347L60.1004 18.8252L62.5325 19.7475C64.5826 20.5224 66.2443 22.0856 67.1534 24.0944ZM67.9511 78.7095H61.511L35.5562 48.1737V37.9395L69.6633 77.7577C69.0359 77.958 68.454 78.2815 67.9511 78.7095V78.7095ZM46.9771 78.7095L21.1293 47.7125V36.3107L57.1236 78.7095H46.9771ZM10.1268 34.5543H18.2109V44.239L10.1268 34.5543ZM52.4735 32.425L53.8355 30.2761L55.9952 35.0449C55.9952 35.1332 56.0827 35.2117 56.1216 35.2902H56.0341L54.6818 36.1733L52.386 32.8469C52.4311 32.7034 52.4604 32.5553 52.4735 32.4054V32.425ZM57.7851 38.1652C58.5342 39.1772 59.3996 40.0962 60.3631 40.9028L61.2095 41.6093L56.8804 45.073C54.6173 46.882 53.0545 49.434 52.4638 52.285L52.4152 52.5303L44.8175 43.6993L45.4887 43.3166L48.8644 42.8554C50.2502 42.6788 51.5795 42.1927 52.7557 41.4327L57.7851 38.1652ZM58.3202 59.4284L55.1293 55.7095L55.7033 52.9621C56.1357 50.876 57.2783 49.0084 58.9331 47.6831L61.6667 45.4949L63.6123 51.2842L62.3963 52.2654C60.7054 53.6161 59.4799 55.4703 58.8941 57.564L58.3202 59.4284ZM60.8982 62.4407L62.0266 58.5158C62.4201 57.0686 63.262 55.7861 64.4295 54.8559L64.6921 54.64L71.2003 74.4313L60.8982 62.4407ZM52.4833 6.71684C52.7884 6.32937 53.1698 6.00987 53.6035 5.7785C54.0371 5.54713 54.5136 5.40891 55.0029 5.37256C58.719 4.83289 59.7697 7.58032 59.867 7.86488L60.2853 9.29747C59.2772 8.82695 58.1853 8.56663 57.075 8.53211C55.2624 8.53235 53.4745 8.9555 51.8509 9.76846C51.7066 8.70814 51.93 7.63008 52.4833 6.71684V6.71684ZM54.497 16.3231C53.9977 15.8827 53.6701 15.2775 53.5728 14.6157C53.5107 13.7687 53.5631 12.917 53.7285 12.0842C54.7515 11.6522 55.8492 11.4288 56.9582 11.4267C57.8244 11.4535 58.6717 11.689 59.4292 12.1136V12.1725C59.7243 12.6216 59.9048 13.1373 59.9545 13.6737C59.8498 14.2953 59.6701 14.9016 59.4195 15.4792L59.2444 15.5479L55.0612 17.579C55.0614 17.3412 55.0111 17.1061 54.9138 16.8895C54.8165 16.6729 54.6744 16.4797 54.497 16.3231V16.3231ZM46.802 27.8132C46.3072 27.8875 45.8026 27.8569 45.3202 27.7234C44.8378 27.59 44.3883 27.3565 44.0003 27.0381L43.8641 26.9596L39.1362 23.8491C38.9126 23.7058 38.6586 23.6178 38.3949 23.5922C38.1312 23.5666 37.8652 23.6042 37.6186 23.7019L36.5193 24.1434L34.2721 23.3486L33.6009 19.983L35.1282 18.8546L36.101 20.297C36.3097 20.6023 36.615 20.8272 36.9668 20.9348L42.5119 22.701C43.222 22.8875 43.8738 23.1131 44.4575 23.329C45.5984 23.7969 46.8079 24.072 48.0375 24.1434L49.9831 27.0381C48.9376 27.3549 47.8756 27.6137 46.802 27.8132V27.8132ZM44.1073 38.489C44.9038 38.3039 45.6592 37.9712 46.3351 37.5078L50.2263 34.8094L52.2303 37.7531L50.9365 38.5969C50.1824 39.0882 49.3275 39.4003 48.4364 39.5095L44.7688 39.9706C44.558 40.0001 44.3539 40.0666 44.1657 40.1669L42.6773 41.0107H42.6189L41.0818 39.2445L44.1073 38.489ZM32.6378 44.7394L23.97 34.5346H32.6378V44.7394ZM8.31731 37.5176L42.687 78.7291H8.28813L8.31731 37.5176ZM81.3565 82.1732C81.2312 82.3424 81.0682 82.4794 80.8805 82.5732C80.6929 82.667 80.4861 82.7148 80.2767 82.7129H69.4395V82.497C69.4789 82.1258 69.6308 81.7759 69.8746 81.495C70.1183 81.2141 70.4419 81.0157 70.8015 80.9271L71.7743 80.6621C72.3886 80.5871 72.9756 80.3619 73.4841 80.0063C73.9927 79.6506 74.4076 79.1752 74.6927 78.6212C75.1981 77.5351 75.2678 76.2941 74.8873 75.1574L64.8089 44.4647L64.663 42.1391L73.7977 39.8333L74.6149 51.8337C74.7925 54.4198 75.216 56.9828 75.8796 59.4872L81.5997 80.9271C81.6592 81.1394 81.6682 81.363 81.6259 81.5795C81.5837 81.796 81.4914 81.9994 81.3565 82.1732V82.1732Z" fill="#F29C1F" fill-opacity="0.3"/>
<path d="M84.7906 78.1028L79.0801 56.6238C78.4671 54.3254 78.0762 51.9726 77.9128 49.5982L76.9399 35.6157C76.9399 35.6157 76.9399 35.5568 76.9399 35.5274C76.9294 35.451 76.9132 35.3756 76.8913 35.3017C76.8913 35.3017 76.8913 35.2134 76.8913 35.1643V35.027L70.1497 20.6814C68.8684 17.8984 66.5509 15.7371 63.6999 14.6665L62.7271 14.2936C62.9997 13.5817 63.1922 12.8411 63.301 12.0859C63.3594 11.464 63.2932 10.8367 63.1065 10.2412V10.2412C63.4802 10.0781 63.7812 9.78168 63.9517 9.40871C64.1222 9.03573 64.1503 8.61241 64.0306 8.21982L63.0578 4.90328C62.4352 2.94082 59.8475 -0.660284 54.5748 0.105074C53.6451 0.19105 52.7434 0.471996 51.9276 0.929908C51.1117 1.38782 50.3997 2.0126 49.8372 2.7642C48.8761 4.20752 48.4301 5.9376 48.5725 7.67034C48.1374 8.37534 47.8525 9.16395 47.7359 9.98603C47.6976 10.308 47.7309 10.6344 47.8336 10.9417C47.9362 11.249 48.1056 11.5292 48.3293 11.7621C48.8664 12.262 49.5484 12.575 50.275 12.655V12.7727C50.4237 14.3607 51.1896 15.8248 52.4055 16.8448L48.5142 18.7288C47.5336 18.737 46.5635 18.5259 45.6735 18.1106C45.0315 17.8947 44.3019 17.6396 43.5431 17.4335L38.5525 15.9323L36.9279 13.5479C36.6687 13.1813 36.2777 12.9313 35.8384 12.8512C35.6212 12.8169 35.3994 12.8261 35.1857 12.8783C34.9721 12.9305 34.7707 13.0247 34.5931 13.1554L33.669 13.8324L32.5308 12.4195L34.8558 10.5061C35.1945 10.2232 35.4109 9.81855 35.459 9.37767C35.4803 9.16027 35.4587 8.94076 35.3952 8.73188C35.3317 8.523 35.2278 8.32893 35.0893 8.16095L31.198 3.36275C30.9204 3.02088 30.5197 2.80407 30.0838 2.75992C29.6479 2.71577 29.2124 2.84788 28.873 3.12725L21.4504 9.25992C21.1144 9.54379 20.9016 9.94862 20.8569 10.3883C20.8337 10.6051 20.8535 10.8244 20.9153 11.0333C20.9771 11.2422 21.0797 11.4366 21.2169 11.6051L25.1082 16.4033C25.264 16.5944 25.4602 16.7482 25.6823 16.8534C25.9044 16.9586 26.1469 17.0127 26.3923 17.0116C26.783 17.018 27.1629 16.8822 27.4624 16.6289L30.0014 14.5389L31.0229 15.7949L30.8575 15.9126C30.6037 16.102 30.4085 16.3604 30.2948 16.6575C30.1811 16.9546 30.1536 17.2782 30.2155 17.5905L31.2856 22.9382C31.3398 23.218 31.4638 23.4793 31.646 23.6973C31.8281 23.9154 32.0623 24.083 32.3265 24.1844L36.0329 25.4992C36.4068 25.6365 36.8167 25.6365 37.1906 25.4992L38.0661 25.146L41.9574 27.707C43.1742 28.6836 44.6828 29.2162 46.2378 29.2181C46.5797 29.2164 46.921 29.1901 47.2592 29.1396C48.2434 28.9752 49.2177 28.7557 50.1777 28.4822L49.9345 28.8845C49.8959 28.8981 49.8598 28.918 49.8275 28.9433L44.3797 32.7701C44.0392 33.0048 43.6605 33.1775 43.261 33.2804L40.1674 34.0359L38.0175 33.614C37.9562 33.6044 37.8939 33.6044 37.8326 33.614C36.2761 31.7889 35.1282 30.4642 34.5834 29.8264C34.4292 29.643 34.2368 29.496 34.0199 29.3959C33.803 29.2959 33.567 29.2452 33.3285 29.2475H6.70243C6.31755 29.2482 5.94511 29.3852 5.65002 29.6344C5.35492 29.8836 5.15588 30.2294 5.08755 30.6114C5.03487 30.7732 5.00539 30.9417 5 31.1119V78.3776C5 78.82 5.17424 79.2443 5.48438 79.5571C5.79453 79.8699 6.21518 80.0457 6.65379 80.0457H66.1806C66.1853 80.111 66.1853 80.1766 66.1806 80.2419L66.0346 82.2044C66.0151 82.4322 66.0431 82.6617 66.1169 82.878C66.1906 83.0944 66.3084 83.2927 66.4627 83.4603C66.6181 83.6293 66.8062 83.7643 67.0153 83.8571C67.2245 83.9499 67.4502 83.9986 67.6787 84H80.3253C81.0431 83.9993 81.7511 83.832 82.3946 83.5112C83.038 83.1903 83.5996 82.7244 84.036 82.1496C84.4724 81.5747 84.7718 80.9064 84.9111 80.1961C85.0503 79.4859 85.0258 78.7529 84.8392 78.0538L84.7906 78.1028ZM26.616 12.9886L24.826 10.7808L29.6901 6.76761L31.4801 8.97537L26.616 12.9886ZM67.1534 22.0944L72.9903 34.605L63.3594 37.0287L62.4839 36.3124C60.9839 35.0636 59.8002 33.4727 59.0303 31.6712L56.9388 27.0692L61.657 25.666C62.0766 25.5366 62.4291 25.246 62.6384 24.8569C62.8476 24.4677 62.897 24.0113 62.7757 23.5858C62.6496 23.1636 62.3629 22.8089 61.9783 22.5992C61.5936 22.3896 61.1423 22.3422 60.7231 22.4672L53.9133 24.4886C53.8079 24.4264 53.6972 24.3739 53.5826 24.3316L51.4132 21.0347L60.1004 16.8252L62.5325 17.7475C64.5826 18.5224 66.2443 20.0856 67.1534 22.0944ZM67.9511 76.7095H61.511L35.5562 46.1737V35.9395L69.6633 75.7577C69.0359 75.958 68.454 76.2815 67.9511 76.7095V76.7095ZM46.9771 76.7095L21.1293 45.7125V34.3107L57.1236 76.7095H46.9771ZM10.1268 32.5543H18.2109V42.239L10.1268 32.5543ZM52.4735 30.425L53.8355 28.2761L55.9952 33.0449C55.9952 33.1332 56.0827 33.2117 56.1216 33.2902H56.0341L54.6818 34.1733L52.386 30.8469C52.4311 30.7034 52.4604 30.5553 52.4735 30.4054V30.425ZM57.7851 36.1652C58.5342 37.1772 59.3996 38.0962 60.3631 38.9028L61.2095 39.6093L56.8804 43.073C54.6173 44.882 53.0545 47.434 52.4638 50.285L52.4152 50.5303L44.8175 41.6993L45.4887 41.3166L48.8644 40.8554C50.2502 40.6788 51.5795 40.1927 52.7557 39.4327L57.7851 36.1652ZM58.3202 57.4284L55.1293 53.7095L55.7033 50.9621C56.1357 48.876 57.2783 47.0084 58.9331 45.6831L61.6667 43.4949L63.6123 49.2842L62.3963 50.2654C60.7054 51.6161 59.4799 53.4703 58.8941 55.564L58.3202 57.4284ZM60.8982 60.4407L62.0266 56.5158C62.4201 55.0686 63.262 53.7861 64.4295 52.8559L64.6921 52.64L71.2003 72.4313L60.8982 60.4407ZM52.4833 4.71684C52.7884 4.32937 53.1698 4.00987 53.6035 3.7785C54.0371 3.54713 54.5136 3.40891 55.0029 3.37256C58.719 2.83289 59.7697 5.58032 59.867 5.86488L60.2853 7.29747C59.2772 6.82695 58.1853 6.56663 57.075 6.53211C55.2624 6.53235 53.4745 6.9555 51.8509 7.76846C51.7066 6.70814 51.93 5.63008 52.4833 4.71684V4.71684ZM54.497 14.3231C53.9977 13.8827 53.6701 13.2775 53.5728 12.6157C53.5107 11.7687 53.5631 10.917 53.7285 10.0842C54.7515 9.65224 55.8492 9.4288 56.9582 9.42673C57.8244 9.45346 58.6717 9.68898 59.4292 10.1136V10.1725C59.7243 10.6216 59.9048 11.1373 59.9545 11.6737C59.8498 12.2953 59.6701 12.9016 59.4195 13.4792L59.2444 13.5479L55.0612 15.579C55.0614 15.3412 55.0111 15.1061 54.9138 14.8895C54.8165 14.6729 54.6744 14.4797 54.497 14.3231V14.3231ZM46.802 25.8132C46.3072 25.8875 45.8026 25.8569 45.3202 25.7234C44.8378 25.59 44.3883 25.3565 44.0003 25.0381L43.8641 24.9596L39.1362 21.8491C38.9126 21.7058 38.6586 21.6178 38.3949 21.5922C38.1312 21.5666 37.8652 21.6042 37.6186 21.7019L36.5193 22.1434L34.2721 21.3486L33.6009 17.983L35.1282 16.8546L36.101 18.297C36.3097 18.6023 36.615 18.8272 36.9668 18.9348L42.5119 20.701C43.222 20.8875 43.8738 21.1131 44.4575 21.329C45.5984 21.7969 46.8079 22.072 48.0375 22.1434L49.9831 25.0381C48.9376 25.3549 47.8756 25.6137 46.802 25.8132V25.8132ZM44.1073 36.489C44.9038 36.3039 45.6592 35.9712 46.3351 35.5078L50.2263 32.8094L52.2303 35.7531L50.9365 36.5969C50.1824 37.0882 49.3275 37.4003 48.4364 37.5095L44.7688 37.9706C44.558 38.0001 44.3539 38.0666 44.1657 38.1669L42.6773 39.0107H42.6189L41.0818 37.2445L44.1073 36.489ZM32.6378 42.7394L23.97 32.5346H32.6378V42.7394ZM8.31731 35.5176L42.687 76.7291H8.28813L8.31731 35.5176ZM81.3565 80.1732C81.2312 80.3424 81.0682 80.4794 80.8805 80.5732C80.6929 80.667 80.4861 80.7148 80.2767 80.7129H69.4395V80.497C69.4789 80.1258 69.6308 79.7759 69.8746 79.495C70.1183 79.2141 70.4419 79.0157 70.8015 78.9271L71.7743 78.6621C72.3886 78.5871 72.9756 78.3619 73.4841 78.0063C73.9927 77.6506 74.4076 77.1752 74.6927 76.6212C75.1981 75.5351 75.2678 74.2941 74.8873 73.1574L64.8089 42.4647L64.663 40.1391L73.7977 37.8333L74.6149 49.8337C74.7925 52.4198 75.216 54.9828 75.8796 57.4872L81.5997 78.9271C81.6592 79.1394 81.6682 79.363 81.6259 79.5795C81.5837 79.796 81.4914 79.9994 81.3565 80.1732V80.1732Z" fill="black"/>
</g>
<defs>
<clipPath id="clip0">
<rect width="92" height="84" fill="white"/>
</clipPath>
</defs>
</svg>
