<svg width="92" height="84" viewBox="0 0 92 84" fill="none" xmlns="http://www.w3.org/2000/svg">
<g clip-path="url(#clip0)">
<path d="M2.49998 50.0001C-4.70002 18.8001 42.9999 6.00028 68.9999 2.5002C94.9999 -0.999875 99.5 65.4999 79 78C58.4999 90.5001 9.69998 81.2001 2.49998 50.0001Z" fill="#FDB62F" fill-opacity="0.13"/>
<path d="M49.1429 4C48.6666 4 48.349 4.31796 48.349 4.79489L48.1909 40.5651C48.1909 40.8831 48.3493 41.1219 48.6669 41.2808C48.7463 41.3603 48.9054 41.36 48.9848 41.36C49.1435 41.36 49.3811 41.2811 49.5399 41.2017L74.8658 15.8442C75.0246 15.6853 75.1046 15.5253 75.1046 15.2869C75.1046 15.0484 75.0246 14.89 74.8658 14.7311C67.9588 7.81549 58.8286 4 49.1429 4ZM49.8578 5.66897C58.5907 5.90743 66.7689 9.24692 73.0407 15.3676L49.6996 38.7362L49.8578 5.66897ZM44.4601 11.9489C34.6951 11.9489 25.5652 15.6856 18.6582 22.5216C4.44727 36.8297 4.44727 60.0403 18.6582 74.2689C25.5652 81.1845 34.6951 85 44.4601 85C54.2252 85 63.4345 81.2637 70.2621 74.3481C70.5796 74.0302 70.5796 73.5529 70.2621 73.2349L45.254 48.1958L45.4122 12.7438C45.4122 12.5054 45.3322 12.347 45.1734 12.188C45.0146 12.029 44.8565 11.9489 44.6183 11.9489H44.4601ZM43.8244 13.5387L43.6662 48.5141C43.6662 48.7525 43.7447 48.9109 43.9035 49.0699L68.5936 73.7923C62.0836 80.072 53.5106 83.4894 44.4601 83.4894C35.1714 83.4894 26.3578 79.8326 19.7684 73.2349C6.11323 59.6423 6.11323 37.4653 19.7684 23.7932C26.199 17.3545 34.7739 13.6977 43.8244 13.5387ZM74.7867 20.6928C74.5882 20.6928 74.3904 20.7729 74.2316 20.9319L48.9848 46.2086C48.826 46.3675 48.746 46.5274 48.746 46.7659C48.746 47.0044 48.826 47.1627 48.9848 47.3217L74.2316 72.6C74.3904 72.7589 74.5485 72.8375 74.7867 72.8375C75.0249 72.8375 75.183 72.7586 75.3418 72.6791C89.5527 58.3711 89.5527 35.1605 75.3418 20.9319C75.183 20.7729 74.9852 20.6928 74.7867 20.6928ZM74.7867 22.6008C87.648 36.114 87.648 57.4163 74.7867 70.9294L50.6517 46.7659L74.7867 22.6008Z" fill="#F29C1F" fill-opacity="0.3"/>
<path d="M49.1429 2C48.6666 2 48.349 2.31796 48.349 2.79489L48.1909 38.5651C48.1909 38.8831 48.3493 39.1219 48.6669 39.2808C48.7463 39.3603 48.9054 39.36 48.9848 39.36C49.1435 39.36 49.3811 39.2811 49.5399 39.2017L74.8658 13.8442C75.0246 13.6853 75.1046 13.5253 75.1046 13.2869C75.1046 13.0484 75.0246 12.89 74.8658 12.7311C67.9588 5.81549 58.8286 2 49.1429 2ZM49.8578 3.66897C58.5907 3.90743 66.7689 7.24692 73.0407 13.3676L49.6996 36.7362L49.8578 3.66897ZM44.4601 9.94894C34.6951 9.94894 25.5652 13.6856 18.6582 20.5216C4.44727 34.8297 4.44727 58.0403 18.6582 72.2689C25.5652 79.1845 34.6951 83 44.4601 83C54.2252 83 63.4345 79.2637 70.2621 72.3481C70.5796 72.0302 70.5796 71.5529 70.2621 71.2349L45.254 46.1958L45.4122 10.7438C45.4122 10.5054 45.3322 10.347 45.1734 10.188C45.0146 10.029 44.8565 9.94894 44.6183 9.94894H44.4601ZM43.8244 11.5387L43.6662 46.5141C43.6662 46.7525 43.7447 46.9109 43.9035 47.0699L68.5936 71.7923C62.0836 78.072 53.5106 81.4894 44.4601 81.4894C35.1714 81.4894 26.3578 77.8326 19.7684 71.2349C6.11323 57.6423 6.11323 35.4653 19.7684 21.7932C26.199 15.3545 34.7739 11.6977 43.8244 11.5387ZM74.7867 18.6928C74.5882 18.6928 74.3904 18.7729 74.2316 18.9319L48.9848 44.2086C48.826 44.3675 48.746 44.5274 48.746 44.7659C48.746 45.0044 48.826 45.1627 48.9848 45.3217L74.2316 70.6C74.3904 70.7589 74.5485 70.8375 74.7867 70.8375C75.0249 70.8375 75.183 70.7586 75.3418 70.6791C89.5527 56.3711 89.5527 33.1605 75.3418 18.9319C75.183 18.7729 74.9852 18.6928 74.7867 18.6928ZM74.7867 20.6008C87.648 34.114 87.648 55.4163 74.7867 68.9294L50.6517 44.7659L74.7867 20.6008Z" fill="black"/>
</g>
<defs>
<clipPath id="clip0">
<rect width="92" height="84" fill="white"/>
</clipPath>
</defs>
</svg>
