<svg xmlns="http://www.w3.org/2000/svg" width="8.684" height="1.346" viewBox="2.669 6.371 8.684 1.346"><path d="M2.67 7.3h.056c.024 0 .038-.01.038-.035v-.673c0-.024-.012-.037-.038-.037H2.67V6.46h.44c.277 0 .513.122.513.444 0 .328-.227.492-.535.492h-.42V7.3zm.394-.005c.19 0 .322-.098.322-.374 0-.268-.133-.356-.32-.356h-.078v.732h.076zm.871-.219c0 .138.068.204.204.204.07 0 .135-.012.17-.03h.015v.12a.608.608 0 0 1-.243.04c-.256 0-.37-.124-.37-.335 0-.218.127-.355.353-.355.2 0 .296.11.296.263a.71.71 0 0 1-.005.09h-.418l-.002.003zm.18-.094c.026 0 .038-.01.038-.035 0-.088-.036-.13-.098-.13-.073 0-.113.066-.118.165h.177z" fill="#B2E3F7"/><path d="M5.2 7.29c.048 0 .068-.022.068-.07v-.085h.107v.225c0 .024-.01.038-.036.038h-.667v-.096h.057c.024 0 .038-.01.038-.036v-.673c0-.024-.012-.037-.038-.037h-.057V6.46h.423v.096H5.03c-.025 0-.04.01-.04.037v.7l.21-.002zm.257.01h.04c.024 0 .038-.01.038-.035v-.403c0-.025-.012-.038-.038-.038h-.04V6.73h.252c.023 0 .037.01.037.037v.498c0 .024.012.036.038.036h.04v.097h-.368V7.3zm.18-.914c.075 0 .122.038.122.114 0 .072-.048.112-.122.112-.073 0-.118-.038-.118-.112 0-.076.045-.114.118-.114zM6.74 7.3h.032c.022 0 .036-.01.036-.035v-.3c0-.074-.025-.105-.09-.105a.179.179 0 0 0-.113.048v.359c0 .024.013.036.04.036h.032v.096h-.35v-.096h.033c.023 0 .037-.01.037-.036v-.3c0-.074-.026-.105-.09-.105a.173.173 0 0 0-.114.05v.356c0 .024.012.036.038.036h.034V7.4h-.36v-.096h.04c.024 0 .038-.01.038-.036v-.402c0-.025-.012-.038-.038-.038h-.04v-.094h.25c.024 0 .038.01.038.036v.042h.006a.283.283 0 0 1 .21-.09c.1 0 .158.035.182.103a.309.309 0 0 1 .23-.104c.14 0 .198.068.198.21v.336c0 .024.012.036.038.036h.04v.096H6.74V7.3zm.457-.798c0-.024-.012-.036-.038-.036h-.04V6.37h.253c.024 0 .038.01.038.04v.884h.05c.12 0 .19-.066.19-.245 0-.168-.062-.234-.17-.234h-.01v-.09a.39.39 0 0 1 .075-.007c.213 0 .33.11.33.31 0 .22-.137.367-.395.367h-.283V6.5zM8 6.864c0-.025-.012-.038-.035-.038h-.04v-.094h.253c.022 0 .036.01.036.036v.398c0 .076.03.104.095.104a.17.17 0 0 0 .12-.05v-.356c0-.025-.012-.038-.036-.038h-.05v-.094h.264c.02 0 .035.01.035.036v.498c0 .024.013.036.04.036h.038v.096h-.24c-.035 0-.05-.015-.05-.045V7.32h-.006a.288.288 0 0 1-.215.09c-.145 0-.21-.07-.21-.21v-.336zm.8.436h.04c.023 0 .037-.01.037-.035v-.403c0-.025-.012-.038-.037-.038H8.8V6.73h.253c.024 0 .038.01.038.037v.076h.006c.028-.063.09-.128.177-.128.02 0 .033 0 .047.006v.166h-.014a.153.153 0 0 0-.055-.007c-.068 0-.127.023-.158.062v.324c0 .024.013.036.04.036h.06v.096h-.388V7.3H8.8zm.557.276c0-.082.08-.13.17-.153V7.42c-.052-.02-.082-.06-.082-.108 0-.066.053-.116.113-.145v-.005a.205.205 0 0 1-.168-.208c0-.145.11-.234.31-.234.04 0 .08.004.112.01.017-.098.09-.16.196-.16h.045v.144H9.99c-.05 0-.082.015-.102.043a.199.199 0 0 1 .115.19c0 .153-.11.235-.305.235h-.05c-.022.01-.038.03-.038.053 0 .027.02.04.074.044l.142.008c.165.01.25.07.25.183 0 .152-.153.246-.42.246-.196.004-.3-.048-.3-.14zm.544-.053c0-.038-.03-.06-.127-.067l-.14-.007c-.053.016-.1.047-.1.096 0 .054.052.08.155.08.123 0 .213-.04.213-.103zm-.103-.57c0-.098-.037-.136-.102-.136-.062 0-.1.04-.1.138 0 .095.037.133.1.133.067 0 .102-.04.102-.136zm.524.123c0 .138.068.204.203.204.07 0 .137-.012.172-.03h.015v.12a.612.612 0 0 1-.243.04c-.257 0-.372-.123-.372-.334 0-.218.13-.355.354-.355.2 0 .296.11.296.264a.545.545 0 0 1-.006.09h-.42v.002zm.178-.094c.027 0 .04-.01.04-.035 0-.088-.036-.13-.1-.13-.07 0-.112.066-.117.165h.177zm.334.318h.04c.024 0 .038-.01.038-.035v-.403c0-.025-.013-.038-.038-.038h-.04V6.73h.254c.023 0 .037.01.037.037v.076h.004c.028-.063.09-.128.177-.128.018 0 .033 0 .047.006v.166h-.014a.182.182 0 0 0-.055-.006c-.07 0-.13.024-.158.063v.324c0 .024.012.036.037.036h.062V7.4h-.39v-.1h-.002z" fill="#FFF"/></svg>