<?xml version="1.0" encoding="utf-8"?>
<!-- Generator: Adobe Illustrator 21.0.2, SVG Export Plug-In . SVG Version: 6.00 Build 0)  -->
<svg version="1.1" id="Layer_1" xmlns="http://www.w3.org/2000/svg" xmlns:xlink="http://www.w3.org/1999/xlink" x="0px" y="0px"
	 width="578px" height="372px" viewBox="0 0 578 372" style="enable-background:new 0 0 578 372;" xml:space="preserve">
<style type="text/css">
	.st0{fill:#231F20;}
	.st1{fill:#FFFFFF;}
	.st2{clip-path:url(#SVGID_2_);fill:#231F20;}
</style>
<g>
	<path class="st0" d="M481.1,58.8h-10.8c0.3-0.2,0.7-0.3,1.3-0.3c0.8,0,1.7-0.1,2.8-0.3V41.7h6.7v-8.5h-333v78.6h8.3
		c0.9,0.1,1.5,0.2,1.4,0.3c-1.1,0.3-2.4,0.4-3.8,0.6v13.7h-5.9v10.1h325L481.1,58.8L481.1,58.8z M178.9,92.7c0,0.4-0.1,1.1-0.4,1.1
		c-1.6,0.7-1.3,1.8-1.3,3.1v2.4h-15.7v-3.6c0-0.4,0.1-1.1,0.4-1.1c1.4-0.6,1.4-1.7,1.4-3c-0.1-6.2-0.1-12.6,0-18.9c0-1,0-2-1.3-2.4
		c-0.4-0.1-0.6-1.3-0.6-2v-2h15.6c0,0.7,0,1.5,0,2.2c0,0.7-0.1,1.7,1.1,2c0.3,0.1,0.7,0.8,0.7,1.4V92.7L178.9,92.7z"/>
	<path class="st0" d="M383.2,228.4V214h16.1v-32.4h-7.2c0-2.7,0.1-5.3,0-8.1c0-1.7,0.6-2.4,2.3-2.4c1.6-0.1,3.2-0.2,4.9-0.4v-38.5
		h-263v38.6c1.9-0.1,3.8-0.3,5.8-0.5c-0.4-0.6-0.6-0.8-0.8-1.1c0.3-0.1,0.4-0.1,0.7-0.3v-0.1c-2.3-1.4-0.7-3.5-0.8-5.4
		c-0.2-1.4,0.1-2.9,0.1-4.3h15.1c0,0.4,0,0.7,0,1.1c0,2,0,4,0.1,5.9c0,0.8-0.6,2,0.7,2.5c0.1,0.1-0.1,1-0.3,1.7
		c-2.7,0.3-5.7,0.6-8.6,0.7c-1.3,0.1-2,0.6-1.8,2.1v8.3h-10.2v32.7h4.6c-0.1,2.7-0.3,2.3,3.1,2.6c0.7,0,1.3,0.1,1.8,0.3
		c1,0.1,1.1,0.6,1,1.7c-0.3,1.3-0.4,2.7-0.4,4c0.1,1.3-0.4,1.7-1.6,1.7c-0.8,0.1-1.7,0.3-2.5,0.3c-1.1,0-1.6,0.6-1.4,1.7v1.8h-4.6
		v7.2h263v-11.4c-0.2,0-0.4,0-0.6,0c-1.6,0.3-3.1,0.6-4.4,1.1C390.7,226.9,387,227.9,383.2,228.4"/>
	<path class="st0" d="M473.1,286.8h-6.5c0.2-2.2,0.5-4.3,1-6.5c0.4-1.7,1.4-2.1,2.8-2.1c0.9,0,1.8,0,2.7,0V235H155.7v34.4h12.4
		c-0.4,0.3-0.8,0.5-1.2,0.9c-0.7,0.6-1.4,1-2.1,1.4c-0.1,0.1-0.1,0.1-0.1,0.3l0.7,0.8c-0.3,0.1-0.6,0.1-0.8,0.3
		c0.7,0.4,1.4,0.6,2,0.8c-0.3,0.4-0.4,0.8-0.7,1.4c1.6,0.1,3,0.4,4.4,0.6v0.3c-1.1,0-2.4,0-3.7,0.3c0.6,0.1,1.1,0.3,1.7,0.3
		c-1,0.4-1.8,0.7-2.8,0.7c-3.1,0.1-6.4,0.1-9.6,0.2v0.2l0.4,0c2.5,0,5.2-0.1,7.8-0.1h5.2l-13.5,0.4l-15.9,60.2h333.3V286.8
		L473.1,286.8z"/>
	<path class="st1" d="M455.1,58.4c1,0,2.1-0.1,3.1-0.3V41.6h-15.5v16.5c-1.1,0.1-2,0.3-2.8,0.3c-1.4,0-2,0.4-2,2.1
		c0.1,3.7,0.1,7.5,0.1,11.3h-40.9c0-4.1-0.1-8.2,0-12.4c0-0.3,0.8-0.7,1.3-0.8c1.1-0.3,2.2-0.3,3.2-0.4V41.6h-15.5v16.5
		c-1,0.1-1.8,0.3-2.8,0.3c-1.3,0-1.8,0.4-1.8,2v34c0,3.5,0,3.7,3.5,4.1c0.8,0.1,1.1,0.6,1.1,1.3v5.2c0.1,0.8-0.3,1.3-1.1,1.4
		c-1.1,0.1-2.4,0.3-3.4,0.6v19.3h15.3v-19.3c1.4-0.3,2.5-0.4,3.7-0.7c0.4,0,1.1-0.6,1.1-1v-6.5c-1.4-0.3-2.5-0.3-3.7-0.6
		c-0.4-0.1-1-0.6-1-1c-0.1-3.1,0-6.2,0-9.4H438v6.9c0,3.4,0,3.5,3.4,3.8c1,0.1,1.4,0.4,1.4,1.4c0,1.7-0.1,3.4,0,5.1
		c0,1-0.4,1.3-1.4,1.4l-3.2,0.4v19.4h15.6v-19.3c0.3-0.1,0.6-0.1,0.8-0.3c3.8-0.6,3.8-0.6,3.8-4.5c0-3.4,0-3.5-3.4-3.9
		c-1-0.1-1.4-0.4-1.4-1.4V59.9C453.6,58.8,454.1,58.5,455.1,58.4 M354.8,143.6c-10.1-0.3-20.2-0.1-30.4-0.1c-0.3,0-1,0.1-1,0.4
		c-0.4,1.4-0.7,2.8-0.8,4.2c-0.4,4.9,0.1,9.7-0.4,14.7c-0.7,5.1-0.1,10.3-0.1,15.5c0,0.6-0.6,1.3-0.8,1.4c-1.3,0.1-1.4,1-1.4,2v35.1
		c0,2.5,0,2.5,2.5,3c1.3,0.1,1.5,0.7,1.4,1.8c-0.1,1.4-0.3,3,0,4.2c0.3,1.4-0.1,1.7-1.3,2c4.4,0.1,8.7,0.1,13.1,0.1
		c0.3,0,0.4-0.1,0.7-0.1c0.8-0.1,1.3-0.6,1.3-1.5c-0.1-1.3,0-2.7,0.3-3.9c0.4-1.6,0.3-2.5-1.5-2.8c-0.4,0-0.8-0.7-0.8-1.1
		c-0.1-5.1,0-10.3,0-15.6c4.2,0,8.4,0.1,12.5,0c3.2-0.1,6.5-0.3,9.6-1c10.8-2.5,18.4-9,21.9-19.9c0.6-1.3,1-2,2.4-2.1
		c1.4,0,1.7-1,1.4-2.3c-0.1-1-0.3-2.1-0.1-3.1c1-14.7-6.2-24-18.1-28.7C361.7,144.3,358.2,143.7,354.8,143.6 M346,158.9
		c3.7,0.1,7.3,0,10.8,0.4c6.7,0.8,11.5,6.8,10.8,13.8c-0.1,1.6-0.1,3.1-0.3,4.6c-0.1,1-0.6,1.7-1.7,1.8c-1.5,0-2.5,0.8-3.5,2.1
		c-2.8,3.2-6.6,4.7-10.7,5.2c-0.8,0.1-1.5,0-2.4,0c-4.5,0.1-9,0-13.6,0c0-2.1-0.1-4.1,0-6.1c0-0.3,0.6-0.8,1-1
		c0.6-0.3,1.3-0.1,1.8-0.4c0.4-0.3,1.1-0.7,1.1-1.1c0.1-4.9,0.1-9.9,0-14.8c0-1.6-0.1-3-0.3-4.6H346L346,158.9z M364.7,69.1
		c3.4-3.2,6.6-6.3,10-9.7c-10.5-10.3-22.9-14.4-37.2-11.1c-15.2,3.4-24.7,13.4-29.5,28.3c-1.1,0.1-2.2,0.4-3.4,0.4
		c-1.7,0-3.4-0.1-3.9,2c0,0.1-0.1,0.3-0.3,0.4c-1.4,0.3-1.4,1.4-1.5,2.5c-0.1,1-0.4,2-0.6,3.1c2,0.1,4.2,0.4,6.5,0.7
		c1.7,0,2.2,0.7,2.2,2.5c0.1,5.6,1.7,11.1,4.2,16.2c8.6,16.6,27.7,25.1,45.7,19.9c6.9-2,12.8-5.6,17.7-10.7
		c-3.2-3.4-6.5-6.6-9.7-9.7c-6.7,5.5-9.1,6.8-15.5,7.8c-13.1,2.1-26.6-7.9-28.3-21.1c-0.3-1.4,0-3.2-0.7-4.1c-0.8-1-2.7-1.1-4.1-1.7
		c0-0.7,0.1-1.5,0.3-2.3c0.1-0.8,0.3-2.3,0.8-2.4c2-0.7,2.4-3.2,4.8-3.4c0.3,0,0.7-0.6,1-1c0.6-1,1-2,1.7-3
		c8.2-12.7,25.3-15.5,37.1-5.9C363.1,67.6,364,68.5,364.7,69.1 M288.4,117.7c-0.3-2.3-0.3-2.3,2.2-2.5c1.3-0.1,2.5-0.3,3.8-0.6
		c0.4,0,1-0.6,1-0.8c0.1-1.1,0.1-2.1,0.1-3.4h-36.1V89.8h34.9V74.3h-35c0-1.5-0.1-3,0-4.2c0.3-1.7-0.6-2.4-2.2-2.4
		c-1.7-0.1-3.4-0.4-4.9-0.6c0.3-3.5,0.4-6.6,0.6-10H289V41.6h-52V63c0,1.3-0.3,2.5-0.6,4.1c2,0.1,3.9,0.6,6,0.7
		c1,0.1,1.3,0.4,1.3,1.5c0,14.5,0,29.2,0.1,43.7c0,1.1-0.4,1.6-1.5,1.7c-1.5,0.1-3.1,0.4-4.8,0.6c-1,0.1-1.4,0.4-1.1,1.7
		c0.4,1.6,0.7,3.4,0.6,4.9c-0.4,2.3,0.8,2.5,2.5,2.7c1,0,2,0.1,3,0.3c0.4,0,0.8,0.1,1.1,0.3c0.7,0.3,1.4,1,2.1,1h48.1
		c0.6,0,1.1-0.1,1.7-0.1c0.1-0.1,0.1-0.4,0.1-0.6c-0.4-0.3-1-0.6-1.5-0.7c-1.1-0.1-2.2-0.3-3.5-0.3c-1.3,0-1.8-0.6-1.7-2
		C288.8,121,288.6,119.3,288.4,117.7 M210.6,225.6c1-0.8,2-1.3,3.2-1.4c2.8-0.1,5.6-0.3,7.3-3.1c-0.7-1.1-1.4-2.4-2.2-3.5
		c-0.4-0.4-1-0.7-1.4-0.8c-1.4-0.3-3-0.3-4.2-0.6c-1-0.3-2.1-0.7-2.7-1.4c-2.1-2.3-4.1-4.7-5.9-6.9c-2.1-2.4-4.1-4.9-6.2-7.3
		c0.6-0.4,1.1-0.7,1.5-0.8c7.7-4.4,12.5-11,14.2-19.7c0.3-1.4,0.7-2,2.2-2c1.3,0,2.8,0,3.8-0.6c0.4-0.4,0-2.1,0-3.2
		c0.1-9.2-3.1-16.8-10.8-22c-5.9-4.1-12.7-5.6-19.7-5.8h-27c-0.4,0-0.8,0.1-1.4,0.1v31c-1.3,0.1-2.7,0.3-4.1,0.4
		c-1,0-1.5,0.3-1.5,1.6v34.9c0,1.1,0.4,1.7,1.5,1.7l3.5,0.4c0.8,0.1,1.1,0.6,1,1.4c-0.1,1-0.4,2-0.4,3c0,2.8,0,2.8-2.8,3.1
		c-3,0.4-3,0.4-2.7,3.4c0,0,0,0.1,0.1,0.3h14.8v-1.8c-0.1-1.1,0.3-1.7,1.4-1.7c0.8,0,1.7-0.1,2.5-0.3c1.1,0,1.7-0.4,1.5-1.7
		c0-1.3,0.1-2.7,0.4-3.9c0.1-1.1,0-1.5-1-1.7c-0.6-0.1-1.1-0.3-1.8-0.3c-3.7-0.4-3.1,0.1-3.1-3.4v-9.4c3.2,0,6.5,0,9.6,0.1
		c0.7,0,1.4,0.3,1.8,0.8c2.4,2.5,4.6,5.2,6.7,8c1.8,2.5,3.9,4.2,7.2,3.9c0.7,0,1.4,0.1,2.1,0.3c0.4,0.3,1,0.6,1.3,1
		c0.7,1,1.1,2,1.8,2.8c0.8,1,1.5,2,2.5,3.1l-4.8,0.8 M205.2,177c0,0.3-0.4,0.6-0.7,0.7c-1.1,0.1-2.4,0.1-3.7,0.3
		c-0.6,0.1-1.4,0.6-1.7,1.1c-2.2,6.1-6.9,8.9-12.9,9.3c-5.1,0.4-10.1,0-15.3,0v-9.3c0-0.4,0.7-1,1.1-1.1c1-0.1,2.1-0.3,3.1-0.3
		c1.7,0.1,1.4-0.8,1.4-1.8c-0.1-4.8,0-9.4,0-14.4c1.8,0,3.7-0.1,5.5,0c4.4,0.1,8.7,0.1,13.1,0.6c1.7,0.3,3.4,1,4.9,1.8
		c3.2,1.6,4.9,4.4,5.3,7.9C205.4,173.5,205.3,175.2,205.2,177 M228,47.1c0.1-1.8,0.4-3.7,0.8-5.6h-2.4h-63.8c-0.7,0-2,0.4-2,0.7
		c-0.1,1.3-0.4,3.5,0.3,3.9c1.7,1,1.4,2.4,1.4,3.7v7.3h23.9c0.1,0.6,0.1,0.8,0.1,1.1v9.9c0,0.7,0.1,1.8,0.6,2
		c1.3,0.4,1.3,1.4,1.3,2.4c-0.1,6.3-0.1,12.7,0,18.9c0,1.3,0,2.4-1.4,3c-0.3,0-0.4,0.7-0.4,1.1v14.9c0.1,1,6.7,1.4,5.8,1.4
		c-1.3,0.3-2.4,0.4-3.5,0.6V126h15.5v-13.7c1.4-0.1,2.7-0.3,3.8-0.6c0.4-0.1-6-0.8-6-1.3V96.7c0-1.3-0.3-2.4,1.3-3.1
		c0.3,0,0.4-0.7,0.4-1.1V71.8c0-0.6-0.4-1.3-0.7-1.4c-1.3-0.3-1.1-1.3-1.1-2c0-2.8,0.1-5.6,0.1-8.5v-2.8h25.9c0-2.3-0.1-4.4,0-6.3
		C227.8,49.5,227.8,48.3,228,47.1 M167.3,246.8c-0.1,1.3-0.4,3.5,0.3,3.9c1.7,1,1.4,2.4,1.4,3.7v7.3h23.9c0.1,0.6,0.1,0.8,0.1,1.1
		v9.9c0,0.7,0.1,1.8,0.6,2c1.3,0.4,1.3,1.4,1.3,2.4c-0.1,6.3-0.1,12.7,0,18.9c0,1.3,0,2.4-1.4,3c-0.3,0-0.4,0.7-0.4,1.1V315
		c0.1,1-0.3,1.4-1.1,1.4c-1.3,0.3-2.4,0.4-3.5,0.6v13.7h15.5V317c1.4-0.1,2.7-0.3,3.8-0.6c0.4-0.1,1-0.8,1-1.3v-13.8
		c0-1.3-0.3-2.4,1.3-3.1c0.3,0,0.4-0.7,0.4-1.1v-20.7c0-0.6-0.4-1.3-0.7-1.4c-1.3-0.3-1.1-1.3-1.1-2c0-2.8,0.1-5.6,0.1-8.5v-2.8
		h25.9c0-2.3-0.1-4.4,0-6.3c0-1.3,0-2.5,0.1-3.7c0.1-1.8,0.4-3.7,0.8-5.6h-2.4h-63.8C168.5,246.1,167.3,246.5,167.3,246.8
		 M242.6,280.2c0.1,12.3,0.1,24.5,0,36.8c0,1.1,0.6,1.5,1.7,1.5l3.7,0.4c0.8,0.1,1.1,0.6,1,1.4c-0.1,1-0.4,2-0.4,3
		c0,3.1,0,3.1-3.1,3.5c-3,0.3-3,0.3-2.7,3.4c0,0,0.1,0.1,0.1,0.3h15.3c0-0.6,0.1-1.1,0-1.7c-0.1-1.3,0.3-2,1.7-1.8
		c1,0,1.8-0.3,2.8-0.4c0.8,0,1.4-0.4,1.4-1.6c0-1.5,0.3-3.2,0.3-4.8c0.1-0.4-0.4-1.1-0.8-1.3c-1.1-0.3-2.2-0.4-3.4-0.4
		c-1.5,0-2-0.6-2-2.1v-35.8c0-1.4,0.4-1.8,1.8-1.8c1.4-0.1,3.1,0,4.1-0.7c0.6-0.4,0-2.4,0-3.5v-26.8c0-0.6-0.1-1.1-0.1-1.8h-15.5
		v32.4l-4.4,0.4C243.3,278.8,242.6,278.9,242.6,280.2 M312.4,165.7c-0.1-2-0.1-3.9-0.1-5.9c0-3.7-0.3-7.5,0.1-11
		c0.7-4.6,0.7-4.9-3.9-4.9h-4.8h-6.7c0,0.6-0.1,1,0,1.6c0,3.9,0.3,8,0.3,12.1c0.1,1.8-0.4,3.7-0.1,5.5c0.1,1.8-1.4,3.9,0.8,5.4v0.1
		c-0.3,0.1-0.4,0.1-0.7,0.3c0.3,0.3,0.4,0.6,0.8,1.1c-3.1,0.3-5.9,0.6-8.7,0.7c-1.7,0-2.2,0.7-2.2,2.4c0.1,5.5,0.1,10.9,0,16.2
		c0,2.7-0.1,5.4-0.6,7.9c-1.3,7.7-5.3,13.1-13.1,14.9c-4.9,1.3-9.8,1.3-14.8,0.4c-7.9-1.4-12.8-6.1-14.5-13.9
		c-0.6-2.4-0.8-4.8-0.8-7.2c-0.1-6.2,0-12.4-0.1-18.6c0-1.6,0.6-2.1,2.1-2.1c2.8-0.1,5.6-0.4,8.3-0.7c0.1-0.7,0.1-1.1,0.1-1.1
		c-0.3-1-3.7-1.6-3.7-2.3c0-2.7,0.3-5.5,0.3-8.3c0-4.7-0.1-9.4-0.3-14.2h-15.2c0,0.4-0.1,0.7-0.1,1.1c0.1,2.8,0.4,5.8,0.4,8.6
		c0,3.2-0.4,6.3-0.3,9.4c0,1.8,2,3.8,4,5.4c-0.3,0.1-0.6,0.1-0.8,0.3c0.3,0.3,0.4,0.6,0.7,1.1c-3.1,0.3-6,0.4-8.9,0.7
		c-1.1,0.1-1.8,0.3-1.8,1.7c0.1,7.8-0.1,15.4,0.3,23.1c0.3,6.2,2,12.1,5.5,17.5c0.4,0.4,1.1,1,1.7,1.1c2.5,0.3,5.1,0.4,7.4,0.7
		c2.2,0.1,2.2,0.1,3.8,2c1,1.3,2.1,2.4,3.2,3.5c1,0.8,2.1,1.5,3.7,2.8c-3,0.1-5.5,0.4-8.3,0.7l0.8,0.6c0.6,0.3,1,0.4,1.5,0.7
		c5.3,2.3,11,3.2,16.7,3.2c6.6,0.1,13.2-0.8,19.4-3.7c1.3-0.6,2.8-0.8,4.4-1.1c1.7-0.1,3.4-0.1,5.2-0.1c2.4-0.1,4.6-0.7,6.5-2.4
		c1.3-1.3,2.8-2.4,4.2-3.7c0.6-0.6,1.1-1.4,2-2.4l-9.8-0.8c0.3-0.6,0.3-0.7,0.4-1c4.1-6.5,5.6-13.8,5.8-21.4v-18.9
		c-0.1-1.6,0.6-2,1.8-2.1c3-0.1,5.9-0.4,8.6-0.7c0.1-0.7,0.4-1.6,0.3-1.7C311.8,167.7,312.4,166.6,312.4,165.7 M358.7,272.5
		c0.1-0.4-0.3-1-0.6-1.4c-0.1-0.3-0.6-0.6-0.7-0.8c-3-5.2-6.9-9.6-11.7-13.4c-0.7-0.6-1.4-0.8-2.4-1c-1.8-0.3-3.8-0.3-5.5-1.5
		c-1.4-1-2.8-2-4.4-2.8c-0.8-0.4-2.1-0.4-3.1-0.7c-5.5-1.7-11-2.4-16.6-1.7c-5.9,0.8-11.7,2.4-16.6,6.1c-4.1,3-8.3,5.9-11.5,10
		c0,0.1-0.1,0.3-0.3,0.3c-0.8,1.3-2,2.4-2.8,3.5c-0.8,1.1-1.4,2.4-2.2,3.7c2.4,0.3,4.5,0.6,6.5,1c0.1,0.1,0.3,0.3,0.3,0.6
		c-0.4,0.1-0.8,0.3-1.3,0.6c0.1,0,0.1,0.1,0.1,0.3c0.7,0,1.4,0,2.1,0.1c-1.4,0.3-2.8,0.4-4.4,0.4c0.1,0,0.1,0.1,0.1,0.1
		c1.1,0.1,2.2,0.1,3.4,0.3c-0.1,0.3-0.4,0.4-0.6,0.4l-6,0.4c-1.5,0-3.1,0-4.6,0.1h10.7c4.6-0.1,9.3-0.1,13.8-0.3
		c1,0,1.8-0.3,2.8-0.7c-0.6,0-1.1-0.1-1.7-0.3c1.3-0.3,2.5-0.3,3.7-0.3v-0.3c-1.4-0.1-2.8-0.4-4.4-0.6c0.3-0.6,0.4-1,0.7-1.4
		c-0.6-0.3-1.3-0.4-2-0.8c0.3-0.1,0.6-0.1,0.8-0.3l-0.7-0.8c0-0.1,0-0.1,0.1-0.3c0.7-0.4,1.4-0.8,2.1-1.4c6.3-5.1,13.4-7.2,21.4-5.8
		c2.2,0.4,4.6,0.3,6.6,1.1c3,1.3,5.6,3.1,8.4,4.6c1.3,0.8,2.4,1.8,3.5,2.7c-0.1,0.4-0.7,1-0.6,1.5c0.4,1.6,2,1.1,3.1,1.6
		c-1,0.1-2,0.1-3,0.3c1.1,0.1,2.2,0.3,3.5,0.3v0.4c-0.6,0.1-1.1-0.1-1.8-0.1c-3,0.1-5.7,0.2-8.6,0.2c-1.4,0-2.8,0.6-4.1,0.6h5.3h1.7
		c5.6-0.1,11.2,0,16.9-0.1c1.8,0,3.8-0.3,5.6-0.4c0.1,0,0.3-0.1,0.4-0.3c-0.3-0.1-0.4-0.3-0.7-0.4l1-0.4c-0.4-0.1-0.6-0.3-0.7-0.3
		C357.9,274.7,357.9,274.6,358.7,272.5 M269.2,279.5c-2.5,10.9-1.3,21.1,4.2,31c1.1,2.1,2.2,3.1,2.2,3.1l0.3,0.1
		c3.1,0,6.3,0.1,9.6,0.1c3.7,0,7.3,0.1,11,0.3c1,0,1.8,0.3,2.8,0.3v0.6l-3.9,0.6c0.7-0.1,1.4,0,2.2,0c1,0.1,1.8,0.1,2.8,0.1
		c-1.8,0.7-2,0.8-0.6,2.3c1,1,2.1,1.8,3.4,3c-10,0.1-19.7,0.4-29.5,0.6l1.5,0.7l8.3-0.1c1,0.6,2,1.1,3,1.6c0,0-0.1,0.1-0.3,0.1
		c0.7,0.6,1.4,1.1,2.1,1.5c13.9,7.6,27.8,7.6,41.6-0.1c2.1-1.3,4.2-1.8,6.6-1.6l-3.2-0.4c1-1.1,2-1.7,3.1-1.8l13.8-0.3
		c2.1,0,4.4-0.1,6.5-0.3c0.8-0.1,1.8-0.7,2.4-1.4c1.4-2.1,3-3.8,5.6-3.5c-1.5-0.1-3-0.1-4.9-0.3c1.8-0.6,3.4,0.1,4.8-1.4
		c-10.4-0.1-13.6-0.6-13.6-0.6c-2.7-0.1-5-0.4-7.7-0.4c7.2-11.3,8.8-22.9,5.2-35.4c0.4-0.1,0.7-0.1,0.9-0.1c3.2-0.1,6.3-0.5,9.5-0.5
		l-5.2-0.3c-6,0.1-12.1,0.1-18.1,0.4c-0.8,0-1.5,0.3-2.5,0.6c3.1,6.5,3.7,13,1.7,19.7c-2,6.8-6.2,11.8-12.1,15.8
		c2.1,0-5.5,0.3,1.8,0.4c3.8,0,7.4,0.1,11.1,0.3c1.5,0.1,3.2-0.3,4.5,1c-1.7,0.3-3.5,0-5.1,0.3c0.7,0.1,1.7,0.1,2.8,0.3v0.4
		c-3.8,0.3-7.6,0.4-11.4,0.6v-0.4c0.3-0.1,0.6-0.1,0.8-0.3c0.3,0,0.6,0,0.8-0.1l-7.6-0.4c0.8-0.1,1.7-0.1,2.5-0.3
		c-1.4-1.3-3.1-0.8-4.8-1c-3.7-0.1-7.3-0.3-11-0.3c-7.4-0.1-5.8-0.3-5.8-0.3c-1.4,0-3-0.1-4.5-0.1c-0.4-0.1-1.1-0.3-1.5-0.6
		c-11.1-6.5-15.9-20.7-11.1-32.7c0.7-2,2-2.2,3.8-2.2l16.3-1.1h-5.2c-2.5,0-5.2,0.1-7.7,0.1c-6.5,0.1-12.9,0.1-19.4,0.3
		C270.6,277.4,269.6,277.8,269.2,279.5 M379.7,281.2c-4.8,0.3-9.6,0.6-14.5,0.7h28.9c0.9-0.8,0.1-2.1,0.5-3.1c1.4,0.6,2.8,2.2,3,3.1
		h18.4v-0.1c-0.8-0.1-1.7-0.1-2.5-0.1v-0.4h6.2v-0.3c-0.4-0.3-0.8-0.4-1.1-0.4c-0.3-0.7-0.4-1.1-0.7-1.4
		c-11.5-11.3-23.1-22.5-34.7-33.8c-0.3-0.3-1-0.4-1.4-0.4c-1.1,0.3-1.5,0.8-1.5,2.1v31.7c0,0.6-0.3,1.1-0.6,1.7
		c-0.1-0.1-0.1-0.1-0.3-0.1c0.3,0.3,0.6,0.4,1,0.7C379.9,281,379.8,281.2,379.7,281.2 M397.5,281.9h-3.4c-0.1,0.1-0.3,0.2-0.5,0.3
		c1.7,1.7,3.7,0.7,5.5,0.7l-1.5-0.7C397.5,282.1,397.5,282,397.5,281.9 M372.2,286.7v31.8v1.7h14.5c0-0.3-0.1-0.4-0.1-0.6v-31.8
		c0-0.3,0-0.7,0.3-0.8c1.8-0.7,0.8-1.4-0.1-2.3c0.7-0.1,0.7-0.3,1.4-0.4h-12.7c-0.4,0-0.8,0.1-1.3,0.1
		C372.2,284.6,372.2,284.6,372.2,286.7 M380.1,322.8c-2.5,0.1-4.9,0.3-7.3,0.4v0.1h7.2v3.8c-1.1,0-2.2,0.3-3.4,0.3v0.1h17.7v-4.4
		h-2.5v-0.3c0.8,0,1.7,0,2.7-0.1v-2h-14.2C380.1,321.6,380.1,322.2,380.1,322.8 M451.3,279.2c-0.7-0.6-1-0.7-1.3-1h0.4
		c0.1-0.6,0.4-1.1,0.4-1.7v-29.3v-1.4h-14.3v1.8v28.9c0,0.6-0.3,1.1-0.6,2c0,0,0.3,0.3,0.7,0.6c-3.9,0.3-7.7,0.4-11.4,0.6v0.1h21.2
		c-0.7-0.1-1.4-0.1-2.2-0.1c0-0.1,0-0.3,0.1-0.4H451.3L451.3,279.2z M396.4,288c10.5,10.3,20.9,20.4,31.5,30.9
		c1.1,1,2.1,1.4,3.7,1.4c2.1-0.1,4.2-0.1,6.3-0.1v0.4h12.7v-0.3h-7.3c0-0.3-0.1-0.4-0.1-0.4v-32c0-0.3,0-0.7,0.1-0.8
		c2-0.7,0.8-1.4-0.1-2.4c3.5-0.3,7.2-0.4,10.7-0.4v-0.3h-5.6c-2.1,0-4.1,0.3-6,0.3c-4.2,0-8.6-0.1-12.8-0.3c-1.4,0-2.7,0.3-3.9,0.3
		c-6.5,0-12.8-0.1-19.1-0.1c-3.4,0-6.7,0.1-10.1,0.1h-4.4c1.1,0.1,2.1,0.6,3.1,1.3c0.4,0.3,1.1,1.1,1,1.3
		C395.3,287.4,396.1,287.7,396.4,288 M413.8,284.9c0.1-0.1,0.1-0.3,0.1-0.4h15c0,0.1,0.1,0.6,0.3,0.7c0.8,0.6,0.7,1.3,0.1,1.6
		c-0.8,0.4-0.7,1-0.7,1.5v9.4c0,0.6,0,1-0.1,1.7l-5.8-5.6c-1.8-1.8-3.7-3.5-5.3-5.4c-0.6-0.4-1.5-0.7-1.1-1.8c0.1-0.3-0.8-1-1.5-1.4
		C414.7,285,414.2,285,413.8,284.9 M439.8,322.9c-2.5,0.1-3.4,0.3-3.4,0.3c1.4,0,3.6,0.2,4.6,0.7c1.4,1,2,2.1,3.3,3.5h6.6v-4.1h-2.7
		c-0.1-0.1-0.1-0.3-0.1-0.3l2.8-0.3v-1.8h-12.6C438.8,321.6,439.3,322.1,439.8,322.9 M443.2,328.4v0.1h1.8v-0.3
		C444.5,328.3,443.8,328.4,443.2,328.4 M443.2,328.5h-5.1v0.3c1.3,0.6,1.5,2.5,3.5,2.1C443.2,330.6,443.2,329.7,443.2,328.5"/>
	<polygon class="st0" points="31.2,126.4 46.7,126.4 46.7,113.1 31.2,113.1 31.2,126.4 	"/>
	<g>
		<defs>
			<rect id="SVGID_1_" x="-101.7" y="33.2" width="668.3" height="305.1"/>
		</defs>
		<clipPath id="SVGID_2_">
			<use xlink:href="#SVGID_1_"  style="overflow:visible;"/>
		</clipPath>
		<polygon class="st2" points="6.9,126.4 22.4,126.4 22.4,113.1 6.9,113.1 6.9,126.4 		"/>
		<polygon class="st2" points="-101.8,126.4 -86.3,126.4 -86.3,113.1 -101.8,113.1 -101.8,126.4 		"/>
	</g>
	<path class="st0" d="M115.6,41.6H104c-0.7,0-2,0.4-2,0.7c-0.1,1.3-0.4,3.5,0.3,4c1.7,1,1.4,2.4,1.4,3.7v7.4h11.8V41.6L115.6,41.6z"
		/>
	<path class="st0" d="M149.9,41.6h-11.5c-0.7,0-2,0.4-2,0.7c-0.1,1.3-0.4,3.5,0.3,4c1.7,1,1.4,2.4,1.4,3.7v7.4h11.8V41.6L149.9,41.6
		z"/>
	<path class="st0" d="M-37.8,41.6h-11.5c-0.7,0-2,0.4-2,0.7c-0.1,1.3-0.4,3.5,0.3,4c1.7,1,1.4,2.4,1.4,3.7v7.4h11.8V41.6L-37.8,41.6
		z"/>
	<path class="st0" d="M414.7,218.3c0.1,1.6,0.4,1.6,2.5,2c1.3,0.1,1.6,0.7,1.4,1.8c-0.1,1.4-0.3,3,0,4.2c0.3,1.4-0.1,1.7-1.3,2
		c4.4,0.1,8.8,0.1,13.1,0.1c0.3,0,0.4-0.1,0.7-0.1c0.8-0.1,1.3-0.6,1.3-1.6c-0.1-1.3,0-2.7,0.3-4c0.4-1.6,0.3-2.5-1.6-2.8
		c-0.4,0-0.8-0.7-0.8-1.1c0-0.2,0-0.4,0-0.6H414.7L414.7,218.3z"/>
	<path class="st0" d="M544,218.3c0.1,1.6,0.4,1.6,2.5,2c1.3,0.1,1.6,0.7,1.4,1.8c-0.1,1.4-0.3,3,0,4.2c0.3,1.4-0.1,1.7-1.3,2
		c4.4,0.1,8.8,0.1,13.1,0.1c0.3,0,0.4-0.1,0.7-0.1c0.8-0.1,1.3-0.6,1.3-1.6c-0.1-1.3,0-2.7,0.3-4c0.4-1.6,0.3-2.5-1.6-2.8
		c-0.4,0-0.8-0.7-0.8-1.1c0-0.2,0-0.4,0-0.6H544L544,218.3z"/>
	<path class="st0" d="M439.3,218.3c0.1,1.6,0.4,1.6,2.5,2c1.3,0.1,1.6,0.7,1.4,1.8c-0.1,1.4-0.3,3,0,4.2c0.3,1.4-0.1,1.7-1.3,2
		c4.4,0.1,8.8,0.1,13.1,0.1c0.3,0,0.4-0.1,0.7-0.1c0.8-0.1,1.3-0.6,1.3-1.6c-0.1-1.3,0-2.7,0.3-4c0.4-1.6,0.3-2.5-1.6-2.8
		c-0.4,0-0.8-0.7-0.8-1.1c0-0.2,0-0.4,0-0.6H439.3L439.3,218.3z"/>
	<path class="st0" d="M64.7,217.2c-0.6-0.1-1.1-0.3-1.8-0.3c-3.4-0.4-3.2,0-3.1-2.6H44.6v0.8c0,1.1,0.4,1.7,1.6,1.7l3.5,0.4
		c0.8,0.1,1.1,0.6,1,1.4c-0.1,1-0.4,2-0.4,3c0,2.8,0,2.8-2.8,3.1c-3,0.4-3,0.4-2.7,3.4c0,0,0,0.1,0.1,0.3h14.8v-1.8
		c-0.1-1.1,0.3-1.7,1.4-1.7c0.8,0,1.7-0.1,2.5-0.3c1.1,0,1.7-0.4,1.6-1.7c0-1.3,0.1-2.7,0.4-4C65.8,217.8,65.7,217.4,64.7,217.2"/>
	<path class="st0" d="M-14.7,217.2c-0.6-0.1-1.1-0.3-1.8-0.3c-3.4-0.4-3.2,0-3.1-2.6h-15.1v0.8c0,1.1,0.4,1.7,1.6,1.7l3.5,0.4
		c0.8,0.1,1.1,0.6,1,1.4c-0.1,1-0.4,2-0.4,3c0,2.8,0,2.8-2.8,3.1c-3,0.4-3,0.4-2.7,3.4c0,0,0,0.1,0.1,0.3h14.8v-1.8
		c-0.1-1.1,0.3-1.7,1.4-1.7c0.8,0,1.7-0.1,2.5-0.3c1.1,0,1.7-0.4,1.6-1.7c0-1.3,0.1-2.7,0.4-4C-13.6,217.8-13.8,217.4-14.7,217.2"/>
	<path class="st0" d="M100.8,217.2c-0.6-0.1-1.1-0.3-1.8-0.3c-3.4-0.4-3.2,0-3.1-2.6H80.8v0.8c0,1.1,0.4,1.7,1.6,1.7l3.5,0.4
		c0.8,0.1,1.1,0.6,1,1.4c-0.1,1-0.4,2-0.4,3c0,2.8,0,2.8-2.8,3.1c-3,0.4-3,0.4-2.7,3.4c0,0,0,0.1,0.1,0.3h14.8v-1.8
		c-0.1-1.1,0.3-1.7,1.4-1.7c0.8,0,1.7-0.1,2.5-0.3c1.1,0,1.7-0.4,1.6-1.7c0-1.3,0.1-2.7,0.4-4C102,217.8,101.8,217.4,100.8,217.2"/>
	<path class="st0" d="M435.9,159.1h-15.5c-0.1,1.5-0.2,3-0.1,4.5c0,1.8,2,3.8,4,5.4c-0.3,0.1-0.6,0.1-0.8,0.3
		c0.3,0.3,0.4,0.6,0.7,1.1c-3.1,0.3-6.1,0.4-8.9,0.7c-1.1,0.1-1.8,0.3-1.8,1.7c0.1,2.9,0,5.8,0,8.8h15.3c0-2.8,0-5.6-0.1-8.3
		c0-1.6,0.6-2.1,2.1-2.1c2.8-0.1,5.7-0.4,8.3-0.7c0.1-0.7,0.1-1.1,0.1-1.1c-0.3-1-3.7-1.6-3.7-2.3
		C435.6,164.5,435.9,161.8,435.9,159.1"/>
	<path class="st0" d="M540.2,277.4c-1.4,0-2.8,0.4-4,0.4h5.4h1.7c5.7-0.1,11.3,0,17-0.1c1.8,0,3.8-0.3,5.7-0.4
		c0.1,0,0.3-0.1,0.4-0.3c-0.3-0.1-0.4-0.3-0.7-0.4l1-0.4c-0.4-0.1-0.6-0.3-0.7-0.3c-2.3-0.3-2.3-0.4-1.4-2.5c0.1-0.4-0.3-1-0.6-1.4
		c-0.1-0.3-0.6-0.6-0.7-0.8c-0.3-0.5-0.7-1-1-1.6h-19.6c0.5,0.3,1,0.6,1.5,0.9c1.3,0.8,2.4,1.8,3.5,2.7c-0.1,0.4-0.7,1-0.6,1.6
		c0.4,1.6,2,1.1,3.1,1.6c-1,0.1-2,0.1-3,0.3c1.1,0.1,2.3,0.3,3.5,0.3v0.4c-0.6,0.1-1.2,0.2-1.9,0.2
		C545.8,277.5,543.1,277.4,540.2,277.4 M541,278.2c-0.8,0-1.6,0.3-2.5,0.6c1.3,2.7,2.1,5.4,2.5,8.1h14.6c-0.3-2.7-0.7-5.1-1.5-7.9
		c0.4-0.1,0.7-0.4,1-0.4c3.3-0.1,6.3-0.8,9.6-0.8h-5.4C553.2,277.9,547.1,277.9,541,278.2"/>
	<path class="st0" d="M93.8,72.5H78c-0.6,1.4-1.1,2.7-1.6,4.2c-1.1,0.1-2.3,0.4-3.4,0.4c-1.7,0-3.4-0.1-4,2c0,0.1-0.1,0.3-0.3,0.4
		c-1.4,0.3-1.4,1.4-1.6,2.5c-0.1,1-0.4,2-0.6,3.1c2,0.1,4.2,0.4,6.5,0.7c1.7,0,2.3,0.7,2.3,2.5c0,0.3,0.1,0.6,0.1,0.9h14.1
		c-0.1-1.1-0.1-2.1-0.6-2.7c-0.8-1-2.7-1.1-4.1-1.7c0-0.7,0.1-1.6,0.3-2.3c0.1-0.8,0.3-2.3,0.8-2.4c2-0.7,2.4-3.3,4.8-3.4
		c0.3,0,0.7-0.6,1-1c0.6-1,1-2,1.7-3C93.6,72.8,93.7,72.7,93.8,72.5"/>
	<path class="st0" d="M159,72.5h-15.8c-0.6,1.4-1.1,2.7-1.6,4.2c-1.1,0.1-2.3,0.4-3.4,0.4c-1.7,0-3.4-0.1-4,2c0,0.1-0.1,0.3-0.3,0.4
		c-1.4,0.3-1.4,1.4-1.6,2.5c-0.1,1-0.4,2-0.6,3.1c2,0.1,4.2,0.4,6.5,0.7c1.7,0,2.3,0.7,2.3,2.5c0,0.3,0.1,0.6,0.1,0.9h14.1
		c-0.1-1.1-0.1-2.1-0.6-2.7c-0.8-1-2.7-1.1-4.1-1.7c0-0.7,0.1-1.6,0.3-2.3c0.1-0.8,0.3-2.3,0.8-2.4c2-0.7,2.4-3.3,4.8-3.4
		c0.3,0,0.7-0.6,1-1c0.6-1,1-2,1.7-3C158.8,72.8,158.9,72.7,159,72.5"/>
</g>
</svg>
